<svg width="498" height="498" viewBox="0 0 498 498" xmlns="http://www.w3.org/2000/svg" fill="none"><path d="M384.091 3.736c39.564 24.895-103.685 242.225-103.685 242.225s164.249-164.11 209.417-51.137c57.3 143.317-205.325 99.582-205.325 99.582s152.8 36.333 145.297 79.395c-6.738 38.667-149.39-57.192-149.39-57.192s77.032 153.279-19.099 177.632c-124.833 31.624-60.711-146.68-60.711-146.68s-133.7 126.495-191.682 26.241c-55.246-95.523 164.396-81.415 164.396-81.415s-138.565-17.963-134.382-49.79c4.775-36.334 126.197 30.95 126.197 30.95s-123.052-135.294-50.003-191.335c104.368-80.069 138.681 148.273 138.681 148.273s69.858-264.774 130.289-226.749z" fill="#00FFC2"/></svg>