<svg width="247" height="62" viewBox="0 0 247 62" fill="none" xmlns="http://www.w3.org/2000/svg">
<path fill-rule="evenodd" clip-rule="evenodd" d="M30.9149 59.6052C46.6753 59.6052 59.4485 46.7984 59.4485 31C59.4485 15.2003 46.6753 2.39475 30.9149 2.39475C15.1596 2.39475 2.39024 15.2003 2.39024 31C2.39024 46.7971 15.1596 59.6052 30.9149 59.6052ZM30.9149 0C47.9978 0 61.8375 13.8802 61.8375 31C61.8375 48.1197 47.9952 62 30.9149 62C13.8436 62 0 48.1197 0 31C0 13.8802 13.8423 0 30.9149 0ZM30.9149 52.9583C29.8986 52.9583 29.2862 52.2776 29.2489 51.3463C29.0264 51.7661 28.7395 52.0503 28.3072 52.1368C27.8776 52.2174 27.4338 52.1661 27.0336 51.9896C26.6386 51.8309 26.3169 51.5296 26.1318 51.1448C25.9389 50.7522 26.0032 50.3479 26.1408 49.8764C25.6623 50.561 24.8544 50.7393 24.143 50.4086C23.1678 49.9539 22.8128 49.1285 23.2129 48.1869C24.417 45.3349 25.6147 42.5346 26.8239 39.6865C26.9333 39.4281 27.0259 39.1607 27.1468 38.9037C27.2549 38.6751 27.3231 38.5072 27.4247 38.369C27.5016 38.2652 27.5983 38.1779 27.709 38.1119C25.8385 38.3173 24.9393 39.0522 24.444 39.3778C24.3128 39.4656 24.3205 39.4785 23.8149 39.3209C23.5907 39.2556 23.3499 39.2816 23.1447 39.3932C22.9155 39.515 22.6961 39.6545 22.4886 39.8105C21.8183 40.3323 21.1339 40.836 20.4997 41.3992C20.2038 41.6627 19.7793 42.1109 19.8372 42.5165C19.8835 42.8924 20.8033 43.763 21.0786 44.0226C21.7309 44.6374 20.7441 45.7947 19.4294 45.685C19.7793 45.3181 19.8616 45.0068 19.8166 44.7304C19.6867 44.7291 19.4358 44.7537 19.1991 44.5418C18.9161 44.2874 19.0422 43.5356 18.7797 43.2799C18.3166 42.8304 16.8024 42.789 15.8981 42.7503C15.5173 42.7348 15.1197 42.6327 15.148 42.0425C14.573 42.0812 14.4534 42.5075 14.4534 42.8924C13.9581 42.6134 13.5348 41.2752 15.3616 40.9717C15.0528 40.6914 14.5408 40.5893 14.2257 40.9458C13.9285 40.455 14.6798 39.4901 16.0318 40.0339C16.028 40.03 16.6403 39.2318 18.4684 41.2739C18.6987 41.1008 18.9277 40.9303 19.1374 40.7366C19.8449 40.0946 21.6279 38.356 21.6279 38.356C21.6279 37.3783 21.7746 35.4847 23.0701 34.3493C23.622 33.8649 24.1507 33.6079 25.3188 33.3973C25.3188 33.3973 24.754 32.5151 24.6653 32.1677C23.6464 33.1829 21.5996 33.4865 21.5996 31.7737C19.9311 33.4361 18.3809 32.5397 18.3809 31.496C18.3231 32.0249 18.2035 32.5452 18.0246 33.046C17.8149 33.6066 17.0507 35.7546 15.0786 35.7546C15.0336 36.5012 15.0297 38.9567 12.6729 39.5069C12.5713 39.5302 12.4413 39.565 12.377 39.6425C11.425 40.8231 7.46789 42.0631 6.98418 41.7286C7.29036 41.509 7.77535 41.2184 7.85254 39.8324C7.90143 38.9179 8.00177 34.1723 8.00177 27.488C8.00177 25.1216 8.25778 17.4569 15.862 16.3887C17.016 16.2272 18.1506 16.3112 19.1335 17.0384C20.4714 18.0355 21.1301 19.7121 20.3428 21.6122C20.317 21.6806 20.2977 21.7478 20.2617 21.8085C19.9941 22.2606 20.1035 22.6507 20.4521 22.9968C21.0863 23.6259 21.8261 24.0508 22.7163 24.1542C23.2772 24.2188 23.7429 23.972 24.1147 23.5871C24.9676 22.7114 25.5465 21.6819 25.7562 20.4729C26.1524 18.1763 25.5375 17.0242 25.5028 16.9518C24.884 15.7144 23.5705 14.8077 22.0473 14.6785C21.3501 13.3791 19.3483 13.8932 19.3483 13.8932C18.8466 14.0017 18.6704 14.1437 18.5456 14.3905C18.5456 14.3905 17.6669 13.0575 18.4941 12.5227C19.3239 11.9867 21.1751 11.7658 21.1751 11.7658C21.1751 10.8978 22.6159 10.2222 25.2184 10.686C28.3664 11.2465 29.0431 10.0195 29.0431 10.0195C29.1756 11.5204 28.0229 12.2954 27.6537 12.5046C28.8488 13.7963 30.5174 16.377 30.9149 20.0389C31.3137 16.377 32.9822 13.7963 34.1761 12.5046C33.8068 12.2954 32.6555 11.5204 32.7867 10.0195C32.7867 10.0195 33.4634 11.2465 36.6113 10.686C39.2151 10.2222 40.6559 10.8978 40.6559 11.7658C40.6559 11.7658 42.5072 11.9854 43.3356 12.5227C44.1641 13.0575 43.2842 14.3905 43.2842 14.3905C43.1594 14.1437 42.9831 14.003 42.4814 13.8932C42.4814 13.8932 40.4797 13.3791 39.7824 14.6785C38.2593 14.8077 36.9471 15.7144 36.3283 16.9518C36.2936 17.0242 35.7147 18.166 36.0736 20.4729C36.2627 21.6845 36.8622 22.7114 37.7164 23.5871C38.0882 23.972 38.5526 24.2175 39.1148 24.1542C40.0037 24.0508 40.7447 23.6246 41.3789 22.9968C41.7263 22.6507 41.8356 22.2606 41.5693 21.8085C41.532 21.7478 41.5127 21.6806 41.4883 21.6122C40.6997 19.7134 41.3596 18.0343 42.6976 17.0397C43.6791 16.3125 44.8151 16.2259 45.9677 16.3887C53.5733 17.4569 53.828 25.1216 53.828 27.488C53.828 34.1723 53.9296 38.9179 53.9772 39.8324C54.0544 41.2184 54.5394 41.509 54.8469 41.7286C54.3619 42.0644 50.4047 40.8231 49.4527 39.6425C49.3884 39.565 49.2598 39.5302 49.1581 39.5069C46.8014 38.9567 46.7975 36.5012 46.7525 35.7546C44.7803 35.7546 44.0149 33.6066 43.8052 33.046C43.6262 32.5452 43.5066 32.0249 43.4488 31.496C43.4488 32.5397 41.9 33.4361 40.2314 31.7737C40.2314 33.4865 38.1834 33.1829 37.1658 32.1677C37.0757 32.5151 36.5097 33.3973 36.5097 33.3973C37.6804 33.6079 38.2078 33.8649 38.761 34.3493C40.0552 35.486 40.2018 37.3783 40.2018 38.356C40.2018 38.356 41.9861 40.0946 42.6937 40.7366C42.9021 40.9303 43.1311 41.1008 43.3627 41.2739C45.1894 39.2318 45.8018 40.03 45.7979 40.0339C47.15 39.4901 47.9013 40.4563 47.6054 40.9445C47.2902 40.5893 46.7769 40.6914 46.4682 40.9704C48.2949 41.2752 47.8717 42.6134 47.3777 42.8924C47.3777 42.5075 47.2568 42.0812 46.683 42.0425C46.7113 42.6327 46.3125 42.7348 45.9317 42.7503C45.0273 42.789 43.5132 42.8304 43.05 43.2799C42.7876 43.5356 42.915 44.2874 42.6307 44.5418C42.3952 44.7537 42.1444 44.7291 42.0132 44.7304C41.9694 45.0068 42.0518 45.3181 42.4017 45.6862C41.0856 45.7947 40.0989 44.6374 40.7524 44.0226C41.0252 43.7642 41.9463 42.8924 41.9926 42.5165C42.0518 42.1109 41.6259 41.6627 41.33 41.3992C40.6958 40.836 40.0127 40.3323 39.3412 39.8105C39.1336 39.6545 38.9143 39.515 38.6851 39.3932C38.4802 39.2819 38.2399 39.256 38.0161 39.3209C37.5106 39.4785 37.5183 39.4656 37.3858 39.379C36.8905 39.0522 35.9925 38.3173 34.1207 38.1132C34.2481 38.1907 34.3343 38.2734 34.405 38.369C34.508 38.5072 34.5761 38.6751 34.6829 38.9037C34.8038 39.162 34.8978 39.4281 35.0071 39.6865C36.2164 42.5346 37.4128 45.3349 38.6169 48.1856C39.0183 49.1285 38.6619 49.9552 37.6881 50.4073C36.9754 50.7393 36.1675 50.5623 35.6902 49.8777C35.8279 50.3479 35.8922 50.7522 35.6979 51.1448C35.5135 51.5296 35.1922 51.8309 34.7974 51.9896C34.3973 52.1661 33.9534 52.2174 33.5238 52.1368C33.0903 52.0503 32.8034 51.7661 32.5808 51.3463C32.5435 52.2776 31.9312 52.9596 30.9149 52.9596V52.9583ZM80.284 39.0755C81.1476 39.1116 82.0118 39.1323 82.8762 39.1375C86.4809 39.1375 88.5778 37.4506 88.5778 34.3002C88.5778 30.9031 86.0821 29.8013 80.284 29.8013V39.0755ZM83.1863 18.8751C84.8895 18.8751 88.3655 18.7227 90.3505 18.6C90.2995 18.9652 90.2694 19.3331 90.2605 19.7018C90.2605 19.9162 90.3248 20.407 90.3505 20.7429C88.5778 20.4975 85.6498 20.3166 84.739 20.3166C84.1009 20.3166 81.6258 20.3748 80.284 20.4975V28.1816H81.8381C85.0156 28.1816 91.7026 28.7925 91.7026 34.3299C91.7026 38.8275 87.9462 40.8787 83.0049 40.8502C82.4517 40.8502 80.3805 40.7598 79.0593 40.7598C78.4843 40.7598 77.7818 40.7882 77.2917 40.8502C77.4782 37.4829 77.5361 32.829 77.5361 28.9734C77.5361 25.5169 77.5104 20.2843 77.2917 18.6013C79.2471 18.693 82.4761 18.8751 83.1863 18.8751ZM103.377 32.9543L101.359 33.2578C99.1615 33.5962 96.7172 34.3596 96.7172 36.6898C96.7172 38.462 97.6975 39.4126 99.6774 39.4126C100.902 39.4126 102.122 38.9825 103.377 37.6689V32.9543ZM95.1632 27.1702C96.3557 25.7029 98.5491 25.0622 100.386 25.0622C103.589 25.0622 105.815 26.6497 105.815 30.4743V38.0641C105.815 39.6257 106.15 39.9913 106.789 39.9913C107.008 39.9913 107.342 39.9293 107.523 39.8673L107.705 40.6035C106.993 40.9645 106.212 41.1638 105.415 41.1874C104.409 41.1874 103.771 40.7275 103.525 39.8389L103.345 39.1698C101.695 40.4847 99.8948 41.1874 98.3999 41.1874C95.6212 41.1874 93.8163 39.7162 93.8163 37.1457C93.8163 34.3919 95.8656 33.1054 98.6714 32.5875L101.779 32.0062C102.824 31.8215 103.377 31.5154 103.377 30.752C103.377 27.4143 101.971 26.5592 99.6516 26.5592C97.8506 26.5592 96.5037 27.0785 95.5311 29.0702H95.1632V27.1702ZM111.89 25.4562C112.224 25.4562 112.864 25.3955 113.32 25.3657C113.076 27.6882 113.045 31.5438 113.045 31.6988C114.328 31.7608 116.184 31.8215 117.169 31.8215C118.175 31.8215 120.099 31.7608 121.013 31.6988C121.013 31.5141 120.981 27.661 120.743 25.3657C121.254 25.3955 121.929 25.4562 122.291 25.4562C122.632 25.4562 123.271 25.3955 123.729 25.3657C123.485 27.661 123.451 31.5141 123.451 33.1054C123.451 34.3919 123.483 38.5227 123.729 40.8502C123.263 40.7896 122.793 40.7594 122.323 40.7598C121.807 40.7598 121.195 40.7895 120.742 40.8502C120.981 38.5227 121.013 34.3919 121.013 33.4154C119.673 33.3185 117.841 33.1984 117.138 33.1984C116.307 33.1984 114.27 33.2578 113.045 33.3508C113.045 34.3919 113.077 38.5227 113.32 40.8502C112.854 40.7898 112.385 40.7596 111.915 40.7598C111.4 40.7598 110.787 40.7895 110.329 40.8502C110.569 38.5227 110.601 34.3919 110.601 33.1054C110.601 31.5438 110.569 27.661 110.329 25.3657C110.845 25.3955 111.522 25.4562 111.89 25.4562ZM129.434 25.4562C129.765 25.4562 130.41 25.3955 130.861 25.3657C130.622 27.661 130.596 31.5438 130.596 32.0992H131.085C132.092 32.0992 137.25 26.2195 137.74 25.3657C138.164 25.3955 138.863 25.4562 139.231 25.4562C139.54 25.4562 140.273 25.3955 140.726 25.3657L133.433 31.9145C134.354 33.015 139.197 38.493 141.396 40.8502C140.789 40.7989 140.181 40.7688 139.572 40.7598C139.017 40.7598 138.191 40.7895 137.552 40.8502C136.425 39.0755 132.975 35.0055 131.085 32.922H130.596C130.596 34.0548 130.622 38.5227 130.861 40.8502C130.397 40.7894 129.929 40.7592 129.461 40.7598C128.951 40.7598 128.338 40.7895 127.875 40.8502C128.126 38.5227 128.158 34.3919 128.158 33.1054C128.158 31.5438 128.126 27.661 127.875 25.3657C128.398 25.3955 129.068 25.4562 129.434 25.4562ZM156.071 29.1284C160.345 29.1284 162.853 27.4156 162.853 24.1697C162.853 21.1407 160.468 20.3166 157.508 20.3166C156.992 20.3166 155.219 20.345 154.788 20.407V29.0031C155.161 29.0702 155.767 29.1284 156.071 29.1284ZM154.883 18.6943C155.948 18.6943 157.327 18.6 158.115 18.6C163.762 18.6 165.962 20.3166 165.962 24.1697C165.962 29.1607 161.777 30.7507 156.81 30.7507C156.135 30.7318 155.461 30.6909 154.788 30.628V35.9212C154.788 37.4506 154.852 39.3183 155.039 40.8502C153.961 40.731 152.874 40.731 151.797 40.8502C151.982 37.4816 152.047 32.8303 152.047 28.9747C152.047 25.5182 152.014 20.2843 151.796 18.6C152.807 18.6297 154.181 18.6943 154.883 18.6943ZM169.311 33.3508C169.311 36.8086 170.748 39.99 173.981 39.99C177.094 39.99 178.957 36.9907 178.957 32.891C178.957 29.5869 177.674 26.2518 174.225 26.2518C170.929 26.2518 169.311 29.7096 169.311 33.3508ZM181.859 33.015C181.859 37.6973 178.829 41.1861 174.044 41.1861C169.343 41.1861 166.41 37.7296 166.41 33.4438C166.41 28.365 169.647 25.0609 174.315 25.0609C178.957 25.0609 181.859 28.4257 181.859 33.015ZM196.818 28.6995H196.45C195.38 26.9558 193.89 26.2518 192.207 26.2518C188.635 26.2518 186.926 29.7109 186.926 33.0757C186.926 36.9623 189.062 39.9913 192.847 39.9913C194.102 39.9913 195.23 39.8105 196.998 37.8794L197.275 38.2165L196.908 39.7162C195.437 40.6978 193.799 41.1874 191.904 41.1874C187.139 41.1874 184.025 37.851 184.025 33.1377C184.025 28.21 187.383 25.0622 192.297 25.0622C193.89 25.0622 195.625 25.3657 197.578 26.4068L196.818 28.6995ZM212.223 28.6995H211.86C210.796 26.9558 209.3 26.2518 207.624 26.2518C204.046 26.2518 202.337 29.7109 202.337 33.0757C202.337 36.9623 204.484 39.9913 208.262 39.9913C209.507 39.9913 210.642 39.8105 212.41 37.8794L212.68 38.2165L212.32 39.7162C210.854 40.6978 209.205 41.1874 207.315 41.1874C202.555 41.1874 199.442 37.851 199.442 33.1377C199.442 28.21 202.8 25.0622 207.714 25.0622C209.3 25.0622 211.041 25.3657 212.995 26.4068L212.223 28.6995ZM216.748 40.7598C216.561 40.7598 216.013 40.818 215.769 40.8502C216.013 38.5227 216.045 34.3919 216.045 33.1054C216.045 31.5425 216.013 27.661 215.769 25.3657C216.29 25.3955 216.955 25.4562 217.323 25.4562C217.657 25.4562 218.297 25.3955 218.761 25.3657C218.517 27.661 218.49 31.5141 218.49 33.1054C218.49 34.3919 218.515 36.1951 218.547 37.0527C220.224 35.0055 226.208 27.3859 227.645 25.3657C227.975 25.4239 228.188 25.4562 228.555 25.4562C228.735 25.4562 229.374 25.3955 229.722 25.3657C229.471 27.661 229.439 31.5141 229.439 33.1054C229.439 34.3919 229.471 38.5227 229.722 40.849C229.255 40.7889 228.786 40.7587 228.315 40.7585C227.793 40.7585 227.187 40.7882 226.724 40.849C226.969 38.524 227.001 34.3906 227.001 33.1054C227.002 31.7076 226.982 30.3099 226.942 28.9127C224.86 31.0258 219.367 38.2475 217.631 40.849C217.341 40.786 217.045 40.7557 216.748 40.7585V40.7598ZM234.034 40.7598C233.708 40.7767 233.382 40.8069 233.059 40.8502C233.298 38.5227 233.33 34.3919 233.33 33.1054C233.33 31.5425 233.298 27.661 233.06 25.3657C233.575 25.3955 234.241 25.4562 234.608 25.4562C234.943 25.4562 235.588 25.3955 236.046 25.3657C235.801 27.661 235.773 31.5141 235.773 33.1054C235.773 34.3919 235.8 36.1951 235.832 37.0527C237.51 35.0055 243.487 27.3859 244.925 25.3657C245.259 25.4239 245.473 25.4562 245.841 25.4562C246.021 25.4562 246.666 25.3955 247.001 25.3657C246.761 27.661 246.729 31.5141 246.729 33.1054C246.729 34.3919 246.761 38.5227 247.001 40.849C246.535 40.7885 246.065 40.7583 245.595 40.7585C245.079 40.7585 244.467 40.7882 244.014 40.849C244.259 38.524 244.286 34.3906 244.286 33.1054C244.286 31.5154 244.26 29.5585 244.228 28.9127C242.151 31.0258 236.652 38.2475 234.911 40.849C234.623 40.7858 234.329 40.7555 234.034 40.7585V40.7598Z" fill="white"/>
</svg>
