<svg width="265" height="68" viewBox="0 0 265 68" fill="none" xmlns="http://www.w3.org/2000/svg">
<path fill-rule="evenodd" clip-rule="evenodd" d="M33.3374 64.7339C50.2236 64.7339 63.9092 51.0122 63.9092 34.0854C63.9092 17.1572 50.2236 3.4369 33.3374 3.4369C16.4568 3.4369 2.77533 17.1572 2.77533 34.0854C2.77533 51.0108 16.4568 64.7339 33.3374 64.7339ZM33.3374 0.871094C51.6405 0.871094 66.4688 15.7428 66.4688 34.0854C66.4688 52.428 51.6378 67.2997 33.3374 67.2997C15.0468 67.2997 0.214355 52.428 0.214355 34.0854C0.214355 15.7428 15.0454 0.871094 33.3374 0.871094ZM33.3374 57.6122C32.2485 57.6122 31.5925 56.8828 31.5525 55.885C31.314 56.3348 31.0067 56.6393 30.5435 56.732C30.0832 56.8183 29.6077 56.7633 29.179 56.5742C28.7557 56.4042 28.411 56.0814 28.2127 55.6691C28.006 55.2484 28.0749 54.8153 28.2224 54.3101C27.7096 55.0436 26.844 55.2346 26.0818 54.8803C25.037 54.3932 24.6566 53.5088 25.0853 52.4999C26.3754 49.4442 27.6586 46.4439 28.9543 43.3923C29.0715 43.1155 29.1707 42.829 29.3003 42.5536C29.416 42.3087 29.4891 42.1288 29.598 41.9807C29.6804 41.8696 29.7839 41.776 29.9026 41.7053C27.8985 41.9253 26.935 42.7128 26.4043 43.0616C26.2638 43.1557 26.272 43.1695 25.7303 43.0007C25.4901 42.9307 25.2321 42.9585 25.0122 43.0782C24.7667 43.2086 24.5317 43.358 24.3093 43.5252C23.5911 44.0843 22.8579 44.624 22.1783 45.2274C21.8613 45.5097 21.4065 45.9899 21.4685 46.4245C21.5181 46.8272 22.5036 47.76 22.7986 48.0382C23.4974 48.6969 22.4402 49.9369 21.0315 49.8193C21.4065 49.4262 21.4947 49.0927 21.4464 48.7966C21.3072 48.7952 21.0384 48.8215 20.7848 48.5945C20.4816 48.3219 20.6167 47.5164 20.3355 47.2424C19.8393 46.7608 18.217 46.7165 17.248 46.675C16.84 46.6584 16.4141 46.549 16.4444 45.9166C15.8283 45.9581 15.7001 46.4148 15.7001 46.8272C15.1694 46.5283 14.716 45.0945 16.6732 44.7693C16.3424 44.469 15.7938 44.3597 15.4561 44.7416C15.1377 44.2157 15.9427 43.1819 17.3913 43.7646C17.3872 43.7604 18.0433 42.9052 20.0019 45.0932C20.2486 44.9077 20.494 44.725 20.7187 44.5174C21.4768 43.8296 23.3871 41.9669 23.3871 41.9669C23.3871 40.9192 23.5443 38.8904 24.9323 37.6739C25.5236 37.1549 26.0901 36.8795 27.3416 36.654C27.3416 36.654 26.7365 35.7087 26.6414 35.3365C25.5498 36.4242 23.3568 36.7495 23.3568 34.9144C21.5691 36.6955 19.9082 35.735 19.9082 34.6168C19.8463 35.1835 19.7181 35.7409 19.5264 36.2775C19.3017 36.8782 18.483 39.1796 16.37 39.1796C16.3217 39.9795 16.3176 42.6104 13.7925 43.1999C13.6836 43.2249 13.5444 43.2622 13.4754 43.3453C12.4555 44.6102 8.21567 45.9387 7.69741 45.5803C8.02545 45.345 8.54509 45.0336 8.62779 43.5487C8.68017 42.5689 8.78768 37.4843 8.78768 30.3225C8.78768 27.7871 9.06197 19.5749 17.2094 18.4304C18.4458 18.2574 19.6615 18.3473 20.7145 19.1265C22.148 20.1949 22.8537 21.9912 22.0102 24.027C21.9826 24.1003 21.9619 24.1723 21.9233 24.2374C21.6366 24.7217 21.7538 25.1397 22.1273 25.5106C22.8069 26.1845 23.5994 26.6399 24.5532 26.7506C25.1542 26.8198 25.6531 26.5554 26.0515 26.143C26.9653 25.2047 27.5856 24.1017 27.8103 22.8064C28.2348 20.3457 27.5759 19.1113 27.5387 19.0338C26.8757 17.708 25.4685 16.7365 23.8365 16.5981C23.0894 15.2058 20.9447 15.7566 20.9447 15.7566C20.4072 15.8729 20.2183 16.0251 20.0846 16.2894C20.0846 16.2894 19.1432 14.8612 20.0295 14.2883C20.9185 13.714 22.902 13.4773 22.902 13.4773C22.902 12.5473 24.4457 11.8235 27.2341 12.3203C30.6069 12.921 31.3319 11.6062 31.3319 11.6062C31.4739 13.2144 30.2389 14.0447 29.8433 14.2689C31.1238 15.6528 32.9115 18.4179 33.3374 22.3414C33.7647 18.4179 35.5524 15.6528 36.8316 14.2689C36.436 14.0447 35.2023 13.2144 35.3429 11.6062C35.3429 11.6062 36.0679 12.921 39.4408 12.3203C42.2305 11.8235 43.7743 12.5473 43.7743 13.4773C43.7743 13.4773 45.7577 13.7126 46.6454 14.2883C47.533 14.8612 46.5903 16.2894 46.5903 16.2894C46.4566 16.0251 46.2677 15.8743 45.7302 15.7566C45.7302 15.7566 43.5855 15.2058 42.8384 16.5981C41.2064 16.7365 39.8005 17.708 39.1375 19.0338C39.1003 19.1113 38.4801 20.3347 38.8646 22.8064C39.0672 24.1045 39.7095 25.2047 40.6248 26.143C41.0231 26.5554 41.5207 26.8184 42.123 26.7506C43.0755 26.6399 43.8694 26.1832 44.5489 25.5106C44.9211 25.1397 45.0382 24.7217 44.7529 24.2374C44.7129 24.1723 44.6923 24.1003 44.6661 24.027C43.8212 21.9926 44.5282 20.1935 45.9617 19.1279C47.0134 18.3487 48.2305 18.256 49.4655 18.4304C57.6143 19.5749 57.8872 27.7871 57.8872 30.3225C57.8872 37.4843 57.9961 42.5689 58.0471 43.5487C58.1298 45.0336 58.6494 45.345 58.9788 45.5803C58.4592 45.9401 54.2194 44.6102 53.1994 43.3453C53.1305 43.2622 52.9927 43.2249 52.8838 43.1999C50.3587 42.6104 50.3545 39.9795 50.3063 39.1796C48.1933 39.1796 47.3732 36.8782 47.1485 36.2775C46.9567 35.7409 46.8286 35.1835 46.7667 34.6168C46.7667 35.735 45.1072 36.6955 43.3194 34.9144C43.3194 36.7495 41.1251 36.4242 40.0348 35.3365C39.9383 35.7087 39.3319 36.654 39.3319 36.654C40.5862 36.8795 41.1513 37.1549 41.744 37.6739C43.1306 38.8918 43.2877 40.9192 43.2877 41.9669C43.2877 41.9669 45.1995 43.8296 45.9576 44.5174C46.1809 44.725 46.4262 44.9077 46.6743 45.0932C48.6316 42.9052 49.2877 43.7604 49.2835 43.7646C50.7322 43.1819 51.5371 44.2171 51.2201 44.7403C50.8824 44.3597 50.3325 44.469 50.0017 44.7679C51.9589 45.0945 51.5054 46.5283 50.9762 46.8272C50.9762 46.4148 50.8466 45.9581 50.2318 45.9166C50.2622 46.549 49.8349 46.6584 49.4269 46.675C48.4579 46.7165 46.8356 46.7608 46.3394 47.2424C46.0582 47.5164 46.1947 48.3219 45.8901 48.5945C45.6378 48.8215 45.369 48.7952 45.2285 48.7966C45.1816 49.0927 45.2698 49.4262 45.6447 49.8207C44.2347 49.9369 43.1775 48.6969 43.8777 48.0382C44.1699 47.7614 45.1568 46.8272 45.2064 46.4245C45.2698 45.9899 44.8136 45.5097 44.4965 45.2274C43.817 44.624 43.0851 44.0843 42.3656 43.5252C42.1432 43.358 41.9082 43.2086 41.6627 43.0782C41.4431 42.9589 41.1857 42.9311 40.9459 43.0007C40.4042 43.1695 40.4125 43.1557 40.2705 43.0629C39.7399 42.7128 38.7778 41.9253 36.7723 41.7067C36.9087 41.7897 37.0011 41.8783 37.0769 41.9807C37.1872 42.1288 37.2602 42.3087 37.3746 42.5536C37.5042 42.8304 37.6048 43.1155 37.722 43.3923C39.0176 46.4439 40.2995 49.4442 41.5896 52.4986C42.0197 53.5088 41.6379 54.3945 40.5944 54.8789C39.8308 55.2346 38.9652 55.045 38.4539 54.3115C38.6013 54.8153 38.6703 55.2484 38.4621 55.6691C38.2645 56.0813 37.9203 56.4043 37.4973 56.5742C37.0686 56.7633 36.593 56.8183 36.1327 56.732C35.6682 56.6393 35.3609 56.3348 35.1224 55.885C35.0824 56.8828 34.4263 57.6136 33.3374 57.6136V57.6122ZM86.2329 42.7377C87.1582 42.7764 88.0842 42.7986 89.0103 42.8041C92.8724 42.8041 95.1191 40.9967 95.1191 37.6213C95.1191 33.9816 92.4451 32.8011 86.2329 32.8011V42.7377ZM89.3425 21.0944C91.1674 21.0944 94.8917 20.9311 97.0185 20.7997C96.9638 21.191 96.9316 21.5851 96.922 21.9802C96.922 22.2099 96.9909 22.7358 97.0185 23.0956C95.1191 22.8327 91.982 22.6389 91.0061 22.6389C90.3225 22.6389 87.6705 22.7012 86.2329 22.8327V31.0657H87.898C91.3025 31.0657 98.4671 31.7203 98.4671 37.6532C98.4671 42.472 94.4424 44.6697 89.1481 44.6392C88.5555 44.6392 86.3363 44.5424 84.9207 44.5424C84.3046 44.5424 83.552 44.5728 83.0269 44.6392C83.2268 41.0313 83.2888 36.045 83.2888 31.914C83.2888 28.2106 83.2612 22.6043 83.0269 20.8011C85.122 20.8993 88.5816 21.0944 89.3425 21.0944ZM110.976 36.1793L108.813 36.5045C106.459 36.8671 103.84 37.685 103.84 40.1816C103.84 42.0803 104.89 43.0989 107.012 43.0989C108.324 43.0989 109.63 42.6381 110.976 41.2306V36.1793ZM102.175 29.982C103.453 28.4099 105.803 27.7235 107.771 27.7235C111.203 27.7235 113.588 29.4243 113.588 33.5221V41.6541C113.588 43.3273 113.946 43.7189 114.631 43.7189C114.865 43.7189 115.224 43.6525 115.418 43.5861L115.612 44.3749C114.85 44.7616 114.013 44.9752 113.159 45.0004C112.081 45.0004 111.397 44.5078 111.134 43.5556L110.941 42.8387C109.173 44.2476 107.244 45.0004 105.643 45.0004C102.666 45.0004 100.732 43.4241 100.732 40.6701C100.732 37.7196 102.927 36.3412 105.934 35.7862L109.264 35.1635C110.383 34.9656 110.976 34.6376 110.976 33.8197C110.976 30.2436 109.469 29.3274 106.984 29.3274C105.054 29.3274 103.611 29.8838 102.569 32.0178H102.175V29.982ZM120.096 28.1456C120.455 28.1456 121.14 28.0805 121.629 28.0487C121.367 30.537 121.334 34.668 121.334 34.8341C122.708 34.9005 124.697 34.9656 125.753 34.9656C126.831 34.9656 128.891 34.9005 129.871 34.8341C129.871 34.6362 129.837 30.5079 129.582 28.0487C130.129 28.0805 130.853 28.1456 131.24 28.1456C131.605 28.1456 132.29 28.0805 132.781 28.0487C132.519 30.5079 132.483 34.6362 132.483 36.3412C132.483 37.7196 132.518 42.1454 132.781 44.6392C132.282 44.5743 131.778 44.5419 131.275 44.5424C130.722 44.5424 130.066 44.5742 129.581 44.6392C129.837 42.1454 129.871 37.7196 129.871 36.6733C128.435 36.5695 126.472 36.4408 125.72 36.4408C124.829 36.4408 122.646 36.5045 121.334 36.6041C121.334 37.7196 121.368 42.1454 121.629 44.6392C121.13 44.5745 120.627 44.5421 120.124 44.5424C119.571 44.5424 118.915 44.5742 118.424 44.6392C118.681 42.1454 118.715 37.7196 118.715 36.3412C118.715 34.668 118.681 30.5079 118.424 28.0487C118.977 28.0805 119.702 28.1456 120.096 28.1456ZM138.894 28.1456C139.248 28.1456 139.939 28.0805 140.423 28.0487C140.166 30.5079 140.139 34.668 140.139 35.2631H140.663C141.742 35.2631 147.268 28.9635 147.793 28.0487C148.248 28.0805 148.996 28.1456 149.39 28.1456C149.721 28.1456 150.507 28.0805 150.992 28.0487L143.178 35.0652C144.165 36.2443 149.354 42.1136 151.71 44.6392C151.06 44.5843 150.408 44.5519 149.755 44.5424C149.161 44.5424 148.277 44.5742 147.591 44.6392C146.384 42.7377 142.687 38.377 140.663 36.1447H140.139C140.139 37.3584 140.166 42.1454 140.423 44.6392C139.925 44.5741 139.424 44.5417 138.923 44.5424C138.376 44.5424 137.72 44.5742 137.224 44.6392C137.492 42.1454 137.527 37.7196 137.527 36.3412C137.527 34.668 137.492 30.5079 137.224 28.0487C137.783 28.0805 138.501 28.1456 138.894 28.1456ZM167.433 32.0801C172.013 32.0801 174.699 30.245 174.699 26.7672C174.699 23.5219 172.144 22.6389 168.972 22.6389C168.42 22.6389 166.52 22.6694 166.059 22.7358V31.9458C166.458 32.0178 167.107 32.0801 167.433 32.0801ZM166.161 20.9007C167.302 20.9007 168.779 20.7997 169.623 20.7997C175.674 20.7997 178.031 22.6389 178.031 26.7672C178.031 32.1147 173.547 33.8183 168.225 33.8183C167.502 33.798 166.779 33.7542 166.059 33.6868V39.3582C166.059 40.9967 166.127 42.9979 166.327 44.6392C165.173 44.5115 164.008 44.5115 162.854 44.6392C163.052 41.0299 163.121 36.0464 163.121 31.9154C163.121 28.212 163.087 22.6043 162.853 20.7997C163.936 20.8315 165.408 20.9007 166.161 20.9007ZM181.619 36.6041C181.619 40.3089 183.158 43.7175 186.622 43.7175C189.958 43.7175 191.954 40.5041 191.954 36.1115C191.954 32.5714 190.579 28.9981 186.884 28.9981C183.353 28.9981 181.619 32.7028 181.619 36.6041ZM195.063 36.2443C195.063 41.2611 191.817 44.9991 186.69 44.9991C181.653 44.9991 178.511 41.2957 178.511 36.7038C178.511 31.2622 181.979 27.7221 186.981 27.7221C191.954 27.7221 195.063 31.3272 195.063 36.2443ZM211.091 31.6206H210.696C209.55 29.7523 207.953 28.9981 206.151 28.9981C202.323 28.9981 200.492 32.7042 200.492 36.3094C200.492 40.4736 202.781 43.7189 206.836 43.7189C208.181 43.7189 209.39 43.5252 211.284 41.4562L211.58 41.8174L211.187 43.4241C209.612 44.4759 207.856 45.0004 205.825 45.0004C200.72 45.0004 197.384 41.4257 197.384 36.3758C197.384 31.0961 200.982 27.7235 206.247 27.7235C207.953 27.7235 209.813 28.0487 211.905 29.1641L211.091 31.6206ZM227.596 31.6206H227.208C226.068 29.7523 224.465 28.9981 222.669 28.9981C218.836 28.9981 217.004 32.7042 217.004 36.3094C217.004 40.4736 219.304 43.7189 223.352 43.7189C224.687 43.7189 225.902 43.5252 227.796 41.4562L228.086 41.8174L227.7 43.4241C226.13 44.4759 224.363 45.0004 222.338 45.0004C217.238 45.0004 213.902 41.4257 213.902 36.3758C213.902 31.0961 217.5 27.7235 222.765 27.7235C224.465 27.7235 226.33 28.0487 228.423 29.1641L227.596 31.6206ZM232.444 44.5424C232.244 44.5424 231.657 44.6046 231.395 44.6392C231.657 42.1454 231.691 37.7196 231.691 36.3412C231.691 34.6666 231.657 30.5079 231.395 28.0487C231.953 28.0805 232.666 28.1456 233.06 28.1456C233.418 28.1456 234.103 28.0805 234.601 28.0487C234.339 30.5079 234.31 34.6362 234.31 36.3412C234.31 37.7196 234.338 39.6516 234.372 40.5705C236.168 38.377 242.58 30.2132 244.12 28.0487C244.473 28.111 244.702 28.1456 245.094 28.1456C245.287 28.1456 245.972 28.0805 246.345 28.0487C246.076 30.5079 246.041 34.6362 246.041 36.3412C246.041 37.7196 246.076 42.1454 246.345 44.6378C245.845 44.5735 245.342 44.5412 244.838 44.541C244.278 44.541 243.629 44.5728 243.133 44.6378C243.395 42.1468 243.429 37.7182 243.429 36.3412C243.431 34.8435 243.409 33.346 243.366 31.849C241.136 34.1131 235.25 41.8506 233.391 44.6378C233.08 44.5704 232.762 44.5379 232.444 44.541V44.5424ZM250.965 44.5424C250.615 44.5605 250.267 44.5928 249.92 44.6392C250.176 42.1454 250.211 37.7196 250.211 36.3412C250.211 34.6666 250.176 30.5079 249.921 28.0487C250.473 28.0805 251.187 28.1456 251.58 28.1456C251.939 28.1456 252.63 28.0805 253.121 28.0487C252.859 30.5079 252.828 34.6362 252.828 36.3412C252.828 37.7196 252.857 39.6516 252.892 40.5705C254.689 38.377 261.093 30.2132 262.634 28.0487C262.992 28.111 263.221 28.1456 263.615 28.1456C263.808 28.1456 264.499 28.0805 264.859 28.0487C264.601 30.5079 264.566 34.6362 264.566 36.3412C264.566 37.7196 264.601 42.1454 264.859 44.6378C264.359 44.5731 263.856 44.5407 263.352 44.541C262.799 44.541 262.143 44.5728 261.658 44.6378C261.92 42.1468 261.949 37.7182 261.949 36.3412C261.949 34.6376 261.921 32.5409 261.887 31.849C259.662 34.1131 253.77 41.8506 251.905 44.6378C251.596 44.5702 251.281 44.5377 250.965 44.541V44.5424Z" fill="white"/>
</svg>
