<svg width="228" height="18" viewBox="0 0 228 18" fill="none" xmlns="http://www.w3.org/2000/svg">
<g clip-path="url(#clip0)">
<path d="M119.388 0.28418V2.58531L122.09 5.78208C120.327 6.63041 118.96 8.10898 118.268 9.91584C118.093 10.4216 118.008 10.9528 118.016 11.4867C118.012 12.5753 118.36 13.6367 119.01 14.5181C119.989 15.676 121.319 16.4957 122.805 16.8576C124.291 17.2195 125.856 17.1046 127.271 16.5299C128.229 16.1149 129.103 15.5312 129.848 14.8075L131.388 16.6125H135.449L123.827 3.04002H132.102V0.28418H119.36H119.388ZM121.516 13.0299C121.18 12.5483 121.009 11.9741 121.026 11.3902C121.022 11.0951 121.07 10.8016 121.166 10.5221C121.412 9.93479 121.774 9.40114 122.231 8.95185C122.687 8.50256 123.23 8.14648 123.827 7.90408L128.027 12.7957C127.501 13.4147 126.821 13.8894 126.053 14.1736C125.269 14.5098 124.395 14.5826 123.564 14.3809C122.734 14.1792 121.995 13.7141 121.46 13.0575L121.516 13.0299Z" fill="white"/>
<path d="M106.011 2.92979H94.151V6.63639H102.146V9.4749H94.151V13.6087H106.207V16.4334H90.6083V0.28418H106.011V2.92979Z" fill="white"/>
<path d="M227.224 2.92979H215.35V6.63639H223.346V9.4749H215.35V13.6087H227.406V16.4334H211.808V0.28418H227.224V2.92979Z" fill="white"/>
<path d="M11.5501 0.467773L7.81143 11.312L3.97472 0.495332H0.600098L6.42518 16.3827H9.08567L13.0344 4.64287L17.1232 16.3827H19.6436L25.2447 0.495332H22.0521L18.3974 11.2982L14.6027 0.467773H11.5501Z" fill="white"/>
<path d="M45.8227 6.55371V0.28418H49.4074V16.4334H45.8227V9.57136H35.7829V16.4334H32.1982V0.28418H35.7829V6.55371H45.8227Z" fill="white"/>
<path d="M57.6785 16.4334V0.28418H61.2072V16.4334H57.6785Z" fill="white"/>
<path d="M77.7811 16.4334H74.2244V3.15025H67.6992V0.28418H84.2923V3.15025H77.7811V16.4334Z" fill="white"/>
<path d="M146.759 2.53966C145.996 3.31482 145.399 4.23227 145.002 5.23799C144.606 6.24372 144.417 7.31739 144.448 8.39582C144.448 14.128 149.013 16.6633 153.55 16.6633C155.889 16.5627 158.158 15.844 160.117 14.5827L158.717 12.1851C157.208 13.2387 155.4 13.798 153.55 13.7835C152.784 13.8457 152.012 13.7483 151.287 13.4976C150.561 13.2469 149.897 12.8486 149.338 12.3286C148.78 11.8086 148.338 11.1786 148.044 10.4796C147.749 9.78064 147.607 9.02836 147.627 8.2718C147.626 7.52543 147.779 6.78667 148.077 6.1003C148.375 5.41394 148.812 4.79428 149.36 4.27889C149.909 3.76351 150.558 3.36315 151.269 3.10208C151.979 2.84101 152.737 2.72467 153.494 2.76012C155.308 2.83361 157.083 3.30435 158.689 4.13804L160.005 1.53377C158.006 0.532022 155.794 0.00803438 153.55 0.00428303C152.306 -0.0328683 151.068 0.171972 149.905 0.607053C148.742 1.04213 147.677 1.69889 146.773 2.53966" fill="white"/>
<path d="M174.486 4.45928L176.866 10.1776H172.063L174.486 4.45928ZM169.151 16.4334L170.775 12.9748H178.197L179.905 16.4334H184.358L175.634 0.28418H173.002L164.852 16.4334H169.053" fill="white"/>
<path d="M189.627 14.8894L190.775 12.2851C192.584 13.3334 194.629 13.9207 196.727 13.9937C198.127 13.9937 201.753 13.7044 201.781 11.8304C201.781 8.08246 189.095 12.6434 189.179 5.13371C189.179 2.57078 191.658 0.0629628 196.825 0.11808C199.353 0.117731 201.846 0.698074 204.106 1.81292L202.804 4.2794C200.976 3.34115 198.955 2.82293 196.895 2.76369C195.046 2.76369 192.764 3.23218 192.694 4.58254C192.694 8.48205 205.366 4.07271 205.296 11.4721C205.296 15.7024 200.101 16.6669 196.713 16.6531C191.868 16.5429 189.627 14.8894 189.627 14.8894Z" fill="white"/>
</g>
<defs>
<clipPath id="clip0">
<rect width="226.8" height="17.1" fill="white" transform="translate(0.600098)"/>
</clipPath>
</defs>
</svg>
