<svg width="90" height="90" viewBox="0 0 90 90" fill="none" xmlns="http://www.w3.org/2000/svg">
<path fill-rule="evenodd" clip-rule="evenodd" d="M44.7843 0.000528205C19.9358 0.119679 -0.118623 20.3673 0.000528205 45.2157C0.119679 70.0642 20.3673 90.1186 45.2157 89.9995C70.0642 89.8803 90.1186 69.6318 89.9995 44.7843C89.8803 19.9358 69.6327 -0.118623 44.7843 0.000528205ZM44.7878 0.744291C20.3501 0.860734 0.626945 20.7743 0.744291 45.2112L0.745194 45.2121C0.861637 69.6489 20.7752 89.3721 45.2121 89.2547C69.6489 89.1374 89.3721 69.2256 89.2547 44.7878C89.1383 20.3501 69.2247 0.626945 44.7878 0.744291Z" fill="white"/>
<path d="M58.2989 8.99465C58.1482 9.51819 57.6011 9.81878 57.0794 9.66623C56.5568 9.51548 56.2562 8.96847 56.4069 8.44673C56.5577 7.92409 57.1047 7.6235 57.6273 7.77425C58.15 7.92499 58.4505 8.472 58.2989 8.99374V8.99465Z" fill="white"/>
<path d="M45.8503 84.0004C45.6996 84.5221 45.1525 84.8236 44.6299 84.672C44.1073 84.5212 43.8067 83.9742 43.9583 83.4525C44.11 82.9289 44.657 82.6283 45.1787 82.78C45.7014 82.9316 46.0019 83.4777 45.8503 84.0004Z" fill="white"/>
<path d="M9.44778 33.2789C9.29613 33.8016 8.75002 34.1022 8.22738 33.9505C7.70474 33.7998 7.40416 33.2528 7.5549 32.731C7.70655 32.2084 8.25266 31.9078 8.7753 32.0585C9.29794 32.2102 9.59853 32.7563 9.44778 33.2789Z" fill="white"/>
<path d="M49.5205 5.95177L49.9006 7.55129L48.8544 7.44026L49.5205 5.95177ZM51.7194 10.4416C51.8575 10.4479 52.2944 10.429 52.1012 10.2818H52.1671C52.1428 10.1158 51.9478 10.049 51.8593 10.058C51.4883 9.94063 51.3899 9.5886 51.278 9.24197C51.074 8.6056 50.9115 7.9295 50.7518 7.32833L50.1533 5.08071C50.0576 4.71513 49.8951 3.98217 49.5043 4.62938C49.4104 4.78373 49.2416 5.16736 49.1315 5.39212C48.5538 6.57371 48.005 7.77515 47.3966 8.94139C47.3171 9.09394 47.2512 9.28259 47.1176 9.39452C46.8875 9.5886 46.8694 9.43514 46.6329 9.50736C46.4876 9.55159 46.3368 9.61658 46.4289 9.79621C46.5156 9.9641 46.9335 9.928 47.0815 9.93973C47.3361 9.95959 48.2451 10.2277 48.3074 9.89279C48.4057 9.36744 47.6999 10.0011 48.0627 9.13636C48.1864 8.95132 48.366 8.11545 48.6052 7.97373C48.719 7.90603 49.9448 8.03331 50.0432 8.12538C50.1325 8.20933 50.156 8.55505 50.1876 8.6742C50.2724 8.99645 50.3654 9.3178 50.4412 9.64276L50.5062 9.89009L50.416 10.0273C50.434 10.1988 50.4557 10.3098 50.7184 10.3161C51.0487 10.3595 51.3872 10.4254 51.7194 10.4416ZM62.109 14.4819C62.7599 14.8313 63.7402 15.0325 64.4424 14.7383C65.2232 14.4864 65.8388 13.9394 66.2369 13.2272L66.1791 13.1947L66.2369 13.2263C67.2091 11.4697 66.2053 9.70684 64.4496 9.01089C64.131 8.88452 63.5334 8.64351 63.2004 8.84571C63.0478 8.93868 62.8303 9.45229 62.7743 9.63553C62.722 9.80523 62.6443 10.0219 62.8772 10.0544C63.0586 10.0796 63.148 9.77635 63.2473 9.68518C63.4332 9.51638 63.6219 9.45049 63.8819 9.4559C65.3442 9.48479 65.9697 11.1664 65.5283 12.367C65.095 12.1269 64.6582 11.8895 64.2267 11.6449C64.0777 11.56 63.6057 11.0951 63.473 11.1222C63.2112 11.2432 62.9205 11.6476 62.7806 11.8407C62.4376 12.4004 63.4116 11.9274 63.4369 11.9238C63.9153 11.9436 64.6627 12.4708 65.0571 12.7407C65.318 12.9185 65.3343 12.8481 65.1221 13.1758C64.9262 13.4782 64.6889 13.7652 64.3865 13.9674C63.8024 14.3583 63.1038 14.3249 62.4647 13.9855C61.9339 13.7038 61.4573 13.3373 61.6351 12.682C61.7055 12.422 61.7489 12.0465 61.3481 12.3291C61.1567 12.4645 60.6702 13.1857 60.8282 13.4755C61.0132 13.9123 61.7182 14.2716 62.109 14.4819ZM70.2511 20.1904C70.3837 19.8708 69.7275 19.7444 70.1364 19.4475C70.5227 18.9627 70.9985 18.5403 71.4371 18.1025C71.3703 19.1008 71.1582 20.5424 71.4281 21.4279C71.4678 21.7258 71.6881 22.0092 71.9074 22.2394L72.2198 22.5517C72.4833 22.7936 72.8047 22.8397 72.6377 22.4091L72.3687 21.9343C72.2351 21.538 72.2568 21.084 72.2504 20.6643C72.2423 20.1046 72.2532 19.544 72.2631 18.9853L72.2748 18.4293C72.2838 18.0312 72.3082 18.0817 72.7045 18.0808C73.3445 18.0799 73.9854 18.0872 74.6253 18.0989C74.9196 18.1043 75.1859 18.1359 75.4558 18.2605C75.5424 18.3002 75.7049 18.4762 75.8015 18.4554C76.2754 18.3516 75.6246 17.8371 75.5072 17.7234C75.3556 17.5753 75.2003 17.3208 75.0243 17.2179C74.7616 17.0644 74.8104 17.1728 74.6524 17.3054C74.5098 17.4255 74.7779 17.3939 74.4692 17.4715C74.2688 17.5221 73.9872 17.4878 73.785 17.4896L72.0221 17.5176C72.3786 17.1619 72.7614 16.5824 73.1928 16.3486C73.5358 16.1627 73.4392 16.4425 73.7443 16.4425C74.0323 16.4425 73.9511 16.2051 73.8635 16.0553C73.692 15.7619 73.2199 15.4035 72.9635 15.1553C72.765 14.9639 72.2938 14.7265 72.4797 15.2293C72.6413 15.6653 72.7776 15.5227 72.3669 15.9379L70.3133 17.987C70.0696 18.2289 69.6995 18.7461 69.3673 18.8598C69.148 18.9348 68.9178 18.6558 68.7598 18.8048C68.5134 19.0377 69.2717 19.5576 69.4152 19.721C69.5406 19.8591 70.085 20.5866 70.2501 20.1885L70.2511 20.1904ZM79.5963 24.9627C80.267 25.1902 80.842 25.8509 80.9322 26.6083C81.0559 27.6445 80.3148 28.4768 79.4573 28.9317C78.7993 29.2801 77.9706 29.5085 77.2701 29.1348C76.4072 28.6745 76.0967 27.5859 76.4397 26.6994C76.8874 25.5594 78.3777 24.6513 79.5972 24.9636L79.5963 24.9627ZM79.3454 30.0077C81.1308 29.5329 82.3909 27.3864 81.2292 25.7652C80.9792 24.9149 79.9447 24.3146 79.1206 24.1765C77.7377 23.9454 76.2871 24.7244 75.7519 26.0315C74.851 28.215 77.067 30.6143 79.3454 30.0077ZM79.562 36.1241C79.4492 36.0393 79.5133 35.7441 79.2813 35.7721C79.0971 35.7947 79.1188 36.0104 79.117 36.0636C79.108 36.4103 79.2858 36.8688 79.3463 37.2254C79.3724 37.3779 79.3824 37.8798 79.6496 37.8618C79.7633 37.8536 79.8536 37.7263 79.7786 37.6568C80.0142 37.5233 79.6089 37.2561 80.118 37.0864C80.5712 36.9347 81.0722 36.8751 81.5397 36.7849C81.6598 36.7614 82.0254 36.6332 82.1057 36.6928C82.2916 36.8282 82.344 37.9213 82.3855 38.1362L82.6446 39.4757C81.9929 39.6021 81.1435 39.9189 80.5098 39.8458C80.2273 39.8133 80.4024 39.8395 80.2236 39.6626C80.1189 39.5588 80.1343 39.4459 79.9763 39.464C79.7172 39.5615 80.0187 41.4273 80.2589 41.5257C80.4394 41.5997 80.5134 41.439 80.5369 41.3198C80.5992 41.0012 80.3997 40.8775 80.7517 40.7927C81.7645 40.5084 82.8278 40.3576 83.8614 40.159C84.199 40.094 84.5537 39.9911 84.8958 39.9595C85.2262 39.9288 85.1829 39.9677 85.3598 40.1572C85.432 40.2348 85.5367 40.3684 85.5909 40.3531C85.9393 40.2818 85.6297 39.547 85.59 39.3412C85.5448 39.1092 85.5602 38.8005 85.4645 38.5848C85.3796 38.3925 84.996 38.193 85.0592 38.5794C85.1847 39.0027 84.9076 39.0379 84.5113 39.1146C84.3055 39.1544 83.364 39.4739 83.2015 39.3502C83.1365 39.3015 83.1212 38.9359 83.1058 38.8592L82.6608 36.5664L83.6529 36.3751C83.8514 36.3372 84.0816 36.2514 84.282 36.2532C84.4689 36.255 84.4878 36.2758 84.6331 36.4274C84.746 36.5448 84.8615 36.867 85.0357 36.5231C85.0953 36.4058 84.9816 36.1232 84.9572 36.0167C84.8715 35.6358 84.811 35.2522 84.7451 34.8667C84.7216 34.586 84.2856 34.5905 84.3488 34.901C84.7794 35.3794 83.4326 35.4977 83.2593 35.532C82.4641 35.6854 81.6706 35.8425 80.8745 35.9914C80.6434 36.0357 79.8265 36.3227 79.562 36.1241ZM80.4872 50.2887C79.4753 47.161 85.5891 46.5652 85.2452 49.8392C85.0032 52.1328 81.1471 52.205 80.4872 50.2887ZM79.9411 48.7993C79.5981 50.2282 80.2101 51.7266 81.584 52.344C82.5299 52.7692 84.0861 52.7918 84.7559 52.011C85.7263 51.315 86.0115 49.7182 85.6586 48.6377C84.7767 45.9361 80.6064 46.0326 79.9411 48.7993ZM79.0989 57.621C78.9698 57.5488 78.7343 57.4775 78.6648 57.3556C78.5628 57.1778 78.7496 57.0388 78.672 56.8772C78.4228 56.3582 78.032 57.5533 77.9453 57.7429C77.8704 57.9053 77.5527 58.5444 77.9986 58.4298C78.1268 58.3964 78.2197 58.1418 78.2784 58.0362C79.1702 58.595 80.2399 59.0544 81.1913 59.559C80.4854 59.5798 79.7804 59.5942 79.1116 59.6385C78.6431 59.6691 78.1728 59.6935 77.7043 59.7314C77.3739 59.7576 76.9181 59.7251 77.0995 60.1764C77.2602 60.5745 77.8424 61.0249 78.115 61.3345L79.7109 63.1435C78.6521 62.805 77.5283 62.5405 76.5011 62.1181C76.3124 62.0404 76.3973 61.7949 76.1093 62.0738L76.0389 62.1903C75.8963 62.4096 75.8114 62.7247 75.7076 62.9666C75.6426 63.1191 75.361 63.593 75.6571 63.6706C75.918 63.7392 75.9595 63.2987 76.1111 63.1796C76.4072 62.9467 76.8621 63.1805 77.1853 63.2789L79.4094 63.9505C79.9474 64.113 80.5107 64.3522 81.0649 64.4505C81.667 64.5571 81.4359 64.1256 81.1778 63.8376L78.2477 60.5691L81.2807 60.4156C81.7916 60.3895 82.3079 60.385 82.817 60.338C83.0445 60.3173 83.5707 60.1674 83.1077 59.8759C81.7762 59.1149 80.434 58.3711 79.0971 57.6201L79.0989 57.621ZM76.5868 70.7619C76.2971 70.8802 76.4171 71.0571 76.094 70.8829C75.8051 70.7268 75.5136 70.3594 75.2635 70.1346L73.4708 68.5188C73.154 68.2327 72.8489 67.9023 72.5059 67.6469C72.0753 67.3264 71.9805 67.599 72.0573 68.0224C72.3624 69.6824 72.635 71.3451 72.8543 73.0186L71.5057 71.8018C71.2088 71.5337 70.2122 70.8793 70.2068 70.4803C70.205 70.3521 70.4307 70.2619 70.3567 70.1012C70.1969 69.7546 69.8692 70.2195 69.7546 70.3549C69.5876 70.5516 68.4665 71.5807 69.0153 71.642C69.1931 71.6619 69.259 71.4092 69.3998 71.3667C69.5777 71.3126 69.676 71.4191 69.8232 71.5283C70.4767 72.0139 71.0634 72.6187 71.6682 73.1648C71.9417 73.4113 73.4022 75.0388 73.7082 74.7075C73.8193 74.5865 73.7308 74.3437 73.7073 74.2164C73.6261 73.7832 73.5548 73.349 73.4826 72.9148L73.3508 72.1132C73.1991 71.1609 73.0655 70.2086 72.9365 69.2527L75.1868 71.2819C75.2834 71.3685 75.5767 71.5671 75.6002 71.7116C75.6318 71.9002 75.3583 72.0257 75.4793 72.2188C75.5957 72.403 75.7654 72.2216 75.871 72.1448C76.0759 71.9968 77.021 71.0246 76.9145 70.7999C76.8576 70.6265 76.687 70.7213 76.5859 70.7629L76.5868 70.7619ZM66.9103 79.2795C66.7343 79.2262 66.6305 78.904 66.5528 78.7749L65.9562 77.7829C65.5012 77.0282 64.9479 76.2655 64.595 75.4603C64.5507 75.3592 64.4505 75.2283 64.474 75.1173C64.4993 74.9981 64.7033 74.9729 64.7223 74.8375C64.7502 74.6398 64.6085 74.5947 64.428 74.6253C64.2366 74.6587 64.0335 74.879 63.8683 74.9801L63.0722 75.4359C62.7436 75.5623 62.9837 75.834 63.2202 75.8105C63.6002 75.7726 63.4657 75.5479 63.7528 75.8656C64.14 76.2953 64.4388 76.947 64.743 77.4543C64.3197 77.3189 63.8927 77.1835 63.4612 77.0743C62.7057 76.8333 61.5711 76.428 60.8354 76.789C60.6169 76.8964 60.3281 77.0363 60.1421 77.1934C59.8704 77.4245 59.9038 77.6267 60.2667 77.5816C60.505 77.5518 60.6539 77.4281 60.9094 77.4272C61.2822 77.4263 61.6622 77.5319 62.0206 77.615C62.4701 77.7188 62.916 77.8397 63.3619 77.9562L64.1382 78.1647C64.2005 78.1818 64.5237 78.2252 64.5553 78.2802C64.6004 78.3578 64.4523 78.7117 64.428 78.8092C64.2601 79.4808 64.1175 80.6019 63.7221 81.1823C63.6824 81.2391 63.3547 81.5045 63.3511 81.5957C63.343 81.8033 63.5316 81.8836 63.6923 81.7744C63.9658 81.5984 64.5038 81.3908 64.7223 81.1543C65.021 80.832 64.6762 80.8808 64.6076 80.6768C64.5327 80.4547 64.7719 79.8734 64.8233 79.6541L65.1691 78.162L65.8397 79.2813C65.902 79.386 66.1132 79.6414 66.0844 79.7813C66.0428 79.9817 65.7504 79.9826 65.7928 80.2164C65.8668 80.6208 66.616 79.9944 66.737 79.9231C66.7948 79.8888 68.0431 79.1739 67.4113 79.1278C67.3824 79.0881 67.0141 79.3111 66.9103 79.2795ZM57.0523 83.9724C56.9386 83.9074 56.9341 83.7558 56.898 83.6429C56.7599 83.2051 56.6768 82.7403 56.564 82.2943C56.3862 81.593 56.1713 80.7219 55.9845 79.9673C55.8798 79.5467 55.6469 78.1078 55.1856 79.1468C54.5014 80.6894 53.8064 82.223 53.0526 83.7332C52.8694 82.9948 52.6826 82.2582 52.5038 81.519C52.4235 81.1859 52.0985 80.4141 52.3413 80.1171C52.4298 80.0088 52.6537 80.0224 52.6185 79.8319C52.5625 79.534 50.9666 79.9727 50.7644 80.081C50.3826 80.2859 50.5857 80.4448 50.852 80.4728C51.1408 80.5035 51.2581 80.3175 51.3286 80.6669C51.6346 81.6083 51.8386 82.5895 52.0769 83.5509C52.1482 83.837 52.3657 85.6477 52.8008 85.6143C53.1637 85.506 53.4697 84.3479 53.6303 83.9959L53.9652 83.2647C54.3705 82.3882 54.7957 81.5217 55.2262 80.6569L55.6992 82.5606C55.8031 82.9786 56.2354 83.9327 55.9583 84.291C55.8708 84.4039 55.6234 84.3768 55.683 84.5826C55.7489 84.8119 55.9737 84.7036 56.1127 84.6747C56.4024 84.6133 57.7104 84.4319 57.6553 84.0843C57.5822 83.7774 57.2256 84.0708 57.0514 83.9715L57.0523 83.9724ZM37.2786 81.658C37.2353 81.8439 37.1766 82.4884 37.0304 82.5751C36.8318 82.6933 36.2884 82.3187 36.1566 82.177C35.968 81.9757 35.8506 81.7049 35.8082 81.4341C35.736 80.9729 35.829 80.3211 36.3092 80.1126C36.5529 80.0142 37.526 80.0485 37.526 80.4601C37.526 80.8438 37.3653 81.2861 37.2795 81.6589L37.2786 81.658ZM35.7188 84.3651C35.5663 83.921 35.6511 83.2918 36.0519 82.9957L36.2451 82.8856C36.3173 82.9163 36.895 82.9713 36.9519 83.0751C36.988 83.1401 36.8652 83.4471 36.849 83.5175L36.5412 84.8444C36.1783 84.8444 35.8317 84.6368 35.7188 84.3651ZM37.98 79.8256C37.4222 79.6821 36.8968 79.4699 36.3083 79.5584C34.7142 79.7976 34.401 81.7185 35.6268 82.6365C34.7385 83.2512 34.3585 84.5203 35.5762 85.107C36.1792 85.3977 36.9753 85.4645 37.6253 85.6333C37.7047 85.664 37.906 85.6414 37.9331 85.4889C37.9619 85.3237 37.8094 85.3138 37.7083 85.2424C37.4899 85.0908 37.4736 85.089 37.3815 84.9319C37.5558 84.7658 37.6027 84.134 37.6668 83.8587L38.063 82.1445C38.1298 81.8593 38.2752 80.573 38.5857 80.3933C38.6335 80.3654 39.3638 80.3924 38.9648 80.0684C38.74 79.8815 38.2616 79.8969 37.9809 79.8247L37.98 79.8256ZM26.5857 75.63C26.7897 75.519 26.6525 75.352 26.5388 75.2455C26.2932 75.0171 25.8482 74.8618 25.5558 74.6831C25.415 74.5965 25.0385 74.285 24.8707 74.4638C24.6486 74.7003 25.0918 74.8095 25.1739 74.9485C25.3166 75.1868 25.0151 75.5713 24.8923 75.7925C24.534 76.437 24.1566 77.0734 23.7875 77.7124C23.6078 78.023 23.0166 79.4735 22.5797 79.1459C22.5382 79.1152 22.354 79.1233 22.3071 79.2361C22.1925 79.5142 22.8379 79.7326 22.9922 79.8193C23.2125 79.9438 23.4499 80.1749 23.6891 80.2444C23.9057 80.3067 24.2433 80.1253 23.9382 79.9303C23.838 79.8734 23.7613 79.8066 23.7152 79.6983C23.866 79.1856 24.3047 78.6214 24.5764 78.1511C25.0367 77.355 25.4529 76.4722 26.0089 75.7419C26.2969 75.3727 26.2725 75.8024 26.5866 75.6318L26.5857 75.63ZM28.0607 78.8579C28.0182 78.931 27.8991 79.2307 27.816 79.2587C27.5344 79.3544 27.0587 78.6458 27.0109 78.542C26.824 77.9354 27.0018 76.8269 27.7727 76.7466C28.1473 76.6997 28.753 77.003 28.8694 77.3974C28.799 77.8803 28.2963 78.4517 28.0616 78.857L28.0607 78.8579ZM28.8108 76.5354C27.8097 75.9595 26.4539 76.1292 26.0522 77.355C25.8663 77.9246 26.0504 78.523 26.435 78.9662C26.6805 79.2479 27.2004 79.3941 27.4116 79.6775L27.4911 79.8436C27.4893 79.9456 27.3169 80.1433 27.2672 80.2309C27.0921 80.5333 26.9432 80.8898 26.7274 81.1642C26.4485 81.519 26.5577 81.25 26.2418 81.2789C25.9529 81.3059 25.9692 81.4856 26.1542 81.6697C26.2617 81.7762 26.481 81.843 26.6182 81.9197C26.8529 82.0506 27.13 82.3151 27.3782 82.3774C27.4974 82.4072 27.5967 82.5092 27.7104 82.3593C27.8783 82.1373 27.5561 82.0894 27.4811 81.9549C27.3096 81.6462 27.6716 81.2743 27.8314 80.9981C28.2105 80.3428 28.5869 79.6866 28.9687 79.0321C29.1863 78.6584 29.3876 78.1872 29.6836 77.865C30.0086 77.5112 29.81 77.8244 30.1918 77.772C30.3949 77.7314 30.4554 77.5093 30.2261 77.3776C29.7414 77.1122 29.2883 76.8098 28.8099 76.5345L28.8108 76.5354ZM17.8443 68.0865C17.773 68.0693 17.6358 68.109 17.532 68.1632C17.3921 68.2426 16.7467 68.6217 16.8045 68.7436L16.7521 68.7012C16.4967 68.9368 16.7611 69.0631 16.9597 69.0487C17.0518 69.0415 17.2847 68.8727 17.272 68.8799C17.7965 68.6858 18.2325 69.0496 18.5863 69.4089C19.2895 70.14 19.489 71.2151 19.0638 72.1439C18.6865 72.9663 17.6882 73.8247 16.7314 73.7164C15.8783 73.6207 14.8267 72.6783 14.7283 71.8081C14.6796 71.3731 15.0172 71.2774 15.0858 70.9551C15.1318 70.7421 14.9432 70.5841 14.7545 70.7394C14.4061 70.9921 13.6786 71.4389 13.8158 71.8587C13.8862 72.0744 14.1696 72.3488 14.3077 72.5384C14.6688 73.0349 15.0768 73.5078 15.5868 73.859C16.5066 74.4917 17.6737 74.5793 18.6387 73.9944C19.0828 73.7254 19.4691 73.3382 19.7499 72.9022C19.8988 72.6702 20.4178 71.6439 20.1579 71.4218C20.3104 71.0355 19.9909 70.3169 19.7778 69.9414C19.4123 69.2897 18.6242 68.276 17.8443 68.0865ZM14.1064 64.0498C14.361 63.9487 14.2869 64.1482 14.5325 64.2538C14.6444 64.3025 14.9143 64.3603 14.7997 64.1184C14.8818 63.8819 14.4702 63.3078 14.3303 63.009C13.9945 62.2869 13.6542 61.5674 13.322 60.8444C12.9185 59.9643 12.5051 59.0941 12.0953 58.2113C11.9274 57.8503 11.8001 57.2626 11.5447 56.9765C11.44 56.8601 11.3298 56.7066 11.1791 56.8772C11.0247 57.0514 11.3262 57.2942 11.2684 57.473C11.1628 57.7988 9.78808 58.2682 9.58769 58.3612L7.69752 59.2413C7.50435 59.3315 7.09184 59.606 6.88152 59.5355C6.7407 59.4877 6.47983 58.8919 6.36519 59.4101C6.31555 59.6339 6.63238 60.0076 6.72265 60.1981C6.84812 60.4644 6.92304 60.8543 7.13697 61.0674C7.6235 61.395 7.30486 60.5501 7.34909 60.4508C7.4872 60.1421 8.58393 59.8244 8.85834 59.6962L10.234 59.0562C10.596 58.8883 11.0455 58.548 11.4273 58.5327C11.6891 58.5228 11.5167 58.474 11.6647 58.6356C11.8705 58.8586 11.9861 59.3261 12.1142 59.6005C12.1729 59.7269 12.497 60.208 12.4645 60.3525C12.3959 60.6548 11.3018 60.9726 10.9904 61.1188L9.56603 61.7805C9.23295 61.9357 8.44763 62.4782 8.12719 62.2833C7.99991 62.2056 8.04234 61.9962 7.82119 62.0296C7.6226 62.0594 7.68308 62.2417 7.70655 62.3654C7.74626 62.5784 7.94124 62.8212 8.03331 63.0189C8.11816 63.1995 8.21023 63.695 8.40521 63.7934C8.69586 63.9396 8.78162 63.6002 8.66337 63.4775C8.537 63.0397 9.54798 62.786 9.84044 62.6497C10.6203 62.2851 11.5329 61.9095 12.2262 61.5404C12.2442 61.5331 12.8752 61.2307 12.9068 61.3039C13.1469 61.8103 13.3915 62.3383 13.6361 62.8664C13.7201 63.0487 13.7616 63.0577 13.6876 63.1769C13.5603 63.3818 13.0151 63.5262 12.7777 63.6381C11.8119 64.0922 10.8496 64.5959 9.8603 64.9976C9.63734 65.0878 9.57325 65.1041 9.3864 64.9994C9.25732 64.9272 9.0461 64.5453 8.95222 64.9687C8.89445 65.2295 9.41709 66.0311 9.53985 66.2866C9.60936 66.431 9.66803 66.7081 9.88828 66.6612C10.2223 66.5889 9.89279 66.2784 9.92258 66.1187C9.98667 65.7775 10.5544 65.6691 10.8487 65.5319C11.903 65.0427 12.9465 64.4903 14.036 64.0814L14.1082 64.0489L14.1064 64.0498ZM7.47727 51.3836L5.87053 51.0975L7.33194 50.3428L7.47727 51.3836ZM9.97855 52.8035C10.0282 52.8947 9.97945 53.0265 10.0481 53.1095C10.2087 53.3054 10.4849 53.207 10.3974 52.9028C10.3685 52.6825 10.3532 51.4594 10.0896 51.3412C9.78447 51.204 9.83683 51.6382 9.77816 51.7736C9.40355 51.8124 8.96305 51.6707 8.57852 51.5975C8.06039 51.4992 8.05859 51.5353 7.98637 51.0162C7.93673 50.6606 7.76432 50.2345 7.98276 49.9953C8.21475 49.7417 8.93326 49.4005 9.26905 49.2903L9.48298 49.1784L9.59943 49.2533C9.89099 49.1378 9.82239 48.9302 9.78899 48.6495C9.76823 48.4725 9.77906 47.467 9.46493 47.4823C9.18601 47.4959 9.30155 47.8407 9.27447 48.0059C9.15171 48.3398 8.75273 48.5303 8.46208 48.7C7.76432 49.1044 7.05663 49.4916 6.35075 49.8816L5.32984 50.4448C5.14931 50.5441 4.27553 50.8872 4.25026 51.1616C4.20873 51.6021 6.79757 51.9072 7.06837 51.9658L9.34849 52.4533C9.59943 52.4957 9.85217 52.5751 9.97855 52.8053V52.8035ZM4.91732 39.4504C4.99405 39.399 5.37949 39.5073 5.46795 39.519C5.87144 39.5687 6.66217 39.5073 7.0133 39.7104C7.56934 40.0317 6.66578 40.9498 6.29659 41.0824C5.57536 41.3406 4.61403 41.0229 4.72596 40.1256C4.74853 39.9884 4.80178 39.5281 4.91732 39.4504ZM7.25883 41.291C7.8591 41.7351 8.62907 42.236 9.02172 42.8869C9.18962 43.1649 9.12102 43.3752 9.19504 43.6451C9.22573 43.7552 9.24288 43.8915 9.38098 43.8906C9.64637 43.8897 9.63644 43.349 9.6572 43.145C9.7583 42.1765 9.17427 41.6728 8.44673 41.0779C8.22738 40.8983 7.72821 40.6383 7.6569 40.3775C7.43936 39.5831 8.18225 39.8512 8.64802 39.9162C8.97208 39.9613 9.47306 39.9388 9.5904 40.2664C9.62199 40.3549 9.54166 40.8631 9.77093 40.716C10.03 40.8613 10.067 39.6635 10.0905 39.5046C10.1013 39.4288 10.2764 38.3131 9.84315 38.7427C9.63463 39.0623 9.77545 39.111 9.27447 39.0894C8.55415 39.0578 7.83021 38.9296 7.1135 38.8411L5.70083 38.6669C5.31359 38.6191 4.78012 38.6561 4.87761 38.1425C4.88663 38.0278 4.84511 37.952 4.72596 37.9141L4.707 37.9773C4.62576 37.8302 4.5373 38.0017 4.47683 38.1488C4.37392 38.4006 4.42357 38.7761 4.37934 39.0497C4.28095 39.6571 4.07965 40.3161 4.29268 40.8866C4.67361 42.2911 6.48434 42.4446 7.25973 41.2901L7.25883 41.291ZM22.0769 18.0176C21.8251 17.8597 21.724 18.2018 21.5046 18.181C21.3972 18.1702 21.2212 17.949 21.1517 17.8732C20.7744 17.4634 20.4485 17.0003 20.1073 16.5608C21.1598 16.7639 22.3161 17.0301 23.3822 16.9814C23.7983 16.9471 24.4455 16.6005 24.7235 16.2448C24.9438 15.9623 24.8688 15.8061 24.5276 15.8928L24.1666 16.0688C23.5392 16.2665 22.7169 16.0625 22.0841 15.9803C21.7005 15.9307 21.316 15.8801 20.9323 15.8251C20.7617 15.8007 20.5216 15.8188 20.3754 15.7438C20.1741 15.6409 20.2707 15.8233 20.2066 15.5714C20.1759 15.4496 20.2481 15.2239 20.2635 15.1021C20.3357 14.5262 20.4097 13.9475 20.4936 13.3735C20.5261 13.1487 20.5622 12.9302 20.6715 12.7262C20.7473 12.5854 21.0894 12.3191 20.945 12.1395C20.7428 11.8868 20.2364 12.4726 20.0884 12.5863C19.9602 12.6847 19.7264 12.7777 19.6397 12.9104C19.4547 13.1965 19.6172 13.1054 19.7363 13.2715L19.8519 13.4005C19.9295 13.6018 19.7851 14.1479 19.7625 14.3574L19.5982 15.9072L18.9636 15.093C18.8526 14.9495 18.6513 14.7762 18.5818 14.6038C18.478 14.3456 18.5565 14.4431 18.6351 14.2048C18.7019 14.0008 18.8364 13.739 18.4139 13.8708C18.1413 13.9557 17.8073 14.3628 17.5708 14.5352C17.4562 14.6182 16.9029 14.9287 17.1051 15.1508C17.3172 15.3828 17.5627 14.9224 17.8407 15.0804C18.2018 15.2862 18.6333 16.0887 18.8851 16.4118C19.4511 17.1367 20.277 17.9861 20.6363 18.7587C20.6715 18.8968 20.1461 19.5901 20.8024 19.3021C21.0605 19.1893 21.3259 18.8716 21.5615 18.6974C21.7709 18.543 22.2773 18.3074 22.0769 18.0149V18.0176ZM29.1998 12.4852C28.0236 12.098 27.0434 10.4922 27.39 9.26635C27.6996 8.17052 28.9895 7.63524 30.0131 8.06581C31.0205 8.48825 31.7002 9.7601 31.7002 10.827C31.7002 12.0971 30.3453 12.8625 29.1998 12.4861V12.4852ZM28.4678 7.49081C27.0461 8.064 26.2228 9.5227 26.6326 11.0338C27.0876 12.7109 28.7963 13.7246 30.459 13.1126C32.045 12.5286 32.8989 10.855 32.3212 9.23746C31.7372 7.59281 30.0925 6.83548 28.4678 7.49081ZM42.5935 9.4884C41.9418 9.27267 41.5428 8.11997 41.235 7.56754C40.7223 6.64592 40.2592 5.6548 39.6896 4.76748C39.2871 4.13923 39.1399 4.72054 39.056 5.1132L38.3727 8.30862C38.2445 8.90979 38.2093 10.1663 37.5169 10.2295C37.4276 10.2385 37.3184 10.3234 37.3319 10.447C37.4077 10.7575 39.0217 10.5147 39.2067 10.3134C39.4044 9.99209 38.8989 10.0995 38.8132 10.0228C38.6814 9.90453 38.8267 9.49111 38.861 9.31058C39.0695 8.22106 39.2645 7.17578 39.4586 6.07995C40.0074 7.13968 40.5219 8.11274 41.0843 9.14268C41.1727 9.30516 41.3334 9.50375 41.3794 9.68428C41.3912 9.72761 41.2657 9.81155 41.3009 9.88377C41.3984 10.0842 41.5645 10.0273 41.7486 10.0183C42.0005 10.0065 43.0548 10.0219 43.0755 9.65359C42.9817 9.36383 42.7876 9.55339 42.5944 9.49021L42.5935 9.4884ZM8.76988 26.5794C8.88271 26.555 9.07137 26.7058 9.17698 26.7699C9.72038 27.0957 10.253 27.4423 10.79 27.779C11.384 28.1518 12.0339 28.4912 12.5791 28.929L12.6703 28.9976C12.9754 29.3451 12.6901 29.0807 12.7633 29.4038C12.8526 29.7974 13.0512 29.6845 13.2362 29.3822C13.4466 29.0373 13.6515 28.6907 13.8663 28.3486C14.4106 27.4784 15.0506 26.5595 15.5398 25.7101C16.0679 24.793 16.6682 23.9039 17.2368 23.003C17.3479 22.8577 17.2702 22.6158 17.0356 22.6636C16.8938 22.6925 16.7404 22.9922 16.6962 23.0419C16.4172 23.0662 16.0914 22.7918 15.8585 22.6519C15.3575 22.3495 14.8637 22.0345 14.3673 21.7231C13.8528 21.4008 13.127 21.112 12.7055 20.6823C12.4446 20.416 12.6161 20.5577 12.617 20.296C12.617 20.157 12.7425 19.9502 12.4545 19.962C12.2117 19.9719 12.0023 20.5604 11.9057 20.7148C11.7848 20.908 11.2919 21.4008 11.4219 21.6563C11.5853 21.9785 11.8705 21.4478 12.0511 21.3629C12.5773 21.5786 13.1243 22.0092 13.6217 22.3206C14.3664 22.7864 15.2041 23.3461 15.8792 23.764C16.0914 23.9671 15.798 24.1873 15.6563 24.413C15.5227 24.6269 15.1327 25.5495 14.8953 25.6262C14.7049 25.6885 14.0306 25.1559 13.851 25.0449L12.5204 24.2135C12.0673 23.9292 11.5068 23.6737 11.1015 23.3262C11.004 23.2432 10.9182 23.1791 10.9074 23.0762C10.8884 22.9065 11.1728 22.7738 10.9381 22.6086C10.7079 22.4479 9.6247 24.0032 9.88196 24.2641C10.1266 24.4049 10.1257 24.1305 10.2782 24.0592C10.5436 23.9337 10.8722 24.246 11.115 24.3986L12.9862 25.5693C13.3121 25.7742 13.9566 26.0757 14.2021 26.3618C14.3817 26.5713 14.3276 26.4232 14.2328 26.6877C14.1497 26.9206 13.9394 27.1562 13.8085 27.3656C13.6804 27.5705 13.5341 27.9487 13.3464 28.104L13.1956 28.1798C12.9853 28.1861 12.5204 27.7971 12.3336 27.6815L10.8893 26.7789C10.7296 26.6796 9.58408 25.8257 9.41799 25.9367C9.47396 25.8013 9.30967 25.8374 9.29162 25.6812L9.38189 25.4529C9.34488 25.1559 9.26996 25.0765 9.00006 25.3157C8.80148 25.4917 8.6751 25.8735 8.52436 26.1055C8.46208 26.2003 7.84917 26.9549 8.3357 26.9549C8.54873 26.9549 8.5713 26.6236 8.76898 26.5812L8.76988 26.5794Z" fill="white"/>
<path d="M32.1127 66.1909L33.4477 63.5939V27.3096H39.3358V63.5542H43.498V49.3978H48.932V63.5398H53.6421V57.0957C53.6421 53.1907 53.4399 47.7585 49.0448 44.9531L51.6048 44.0125C56.9025 45.983 59.5545 51.1255 59.5545 57.9017V63.5957L60.8886 66.1909H32.1127ZM42.5953 23.0058L42.8156 23.0094H45.0334C49.4122 23.0094 51.2455 23.7802 53.3198 25.3788C56.3365 27.7447 56.8131 31.1775 56.8131 32.8962C56.8131 35.0274 56.1605 37.2777 54.5628 39.1119C53.3785 40.5318 51.3195 42.5944 47.2819 43.0764C44.5216 43.4113 42.4825 43.2877 41.4652 43.1775V41.0102C41.9183 41.0716 42.5854 41.1321 43.4944 41.1321C46.2412 41.1321 48.1873 39.7573 49.3707 38.2761C50.7157 36.6432 50.9973 35.105 51.056 33.7303H43.4989V31.6009H50.9892C50.7978 30.1621 50.2481 29.0626 49.3553 27.9821C47.6385 25.8509 45.2112 25.4962 43.6117 25.4962L32.8204 25.4917L31.5467 23.0049H42.5962L42.5953 23.0058ZM12.7515 45C12.7515 62.8077 27.1923 77.2485 44.9991 77.2485C62.8059 77.2485 77.2485 62.8068 77.2485 45C77.2485 27.1923 62.8059 12.7524 44.9991 12.7524C27.1923 12.7524 12.7515 27.1932 12.7515 45Z" fill="white"/>
</svg>
