<svg width="78" height="38" viewBox="0 0 78 38" fill="none" xmlns="http://www.w3.org/2000/svg">
<path d="M69.6833 0.504543H55.7572V21.6568H60.7715V3.99413H68.7922C71.1329 3.99413 72.6253 4.65986 72.6253 6.83951C72.6253 8.82588 71.0899 9.68482 68.2768 9.68482H63.2732L64.6046 13.1744H69.8336C73.9138 13.1744 77.865 11.0806 77.865 6.65693C77.865 2.03994 74.0211 0.504543 69.6833 0.504543ZM18.9073 10.5653C20.84 9.78146 22.6008 8.14943 22.6008 5.81946C22.6008 1.95408 19.4871 0.504543 14.054 0.504543H0.0849664V21.6568H13.4527C19.1434 21.6568 23.2772 19.359 23.2772 15.5795C23.2772 12.6161 21.8278 11.1773 18.9073 10.5653ZM13.4527 18.178H5.10989V4.00487H13.7534C16.2337 4.00487 17.3611 4.82091 17.3611 6.43149C17.3611 8.06354 16.0726 8.96545 13.8715 8.96545H7.64398L8.97538 12.4658H13.7856C16.792 12.4658 18.0375 13.2174 18.0375 15.4078C18.0375 16.9861 16.8779 18.178 13.4527 18.178ZM40.2098 13.0241H45.9004V17.5015C43.9355 18.0384 41.6808 18.5108 39.6514 18.5108C34.7338 18.5108 31.0725 15.9339 31.0725 11.027C31.0725 6.48514 35.2385 3.52169 40.0917 3.52169C44.9449 3.52169 47.7151 4.8209 50.3994 6.02347L50.5282 1.29908C46.4481 0.332738 43.3665 0.0321045 39.791 0.0321045C31.9422 0.0321045 25.8327 4.50952 25.8327 11.2525C25.8327 18.3175 31.3945 22.0111 38.932 22.0111C43.0991 21.9557 47.1995 20.9573 50.9255 19.0906V9.53448H38.8677L40.2098 13.0241ZM0.0849664 37.4511V29.2694H1.10495V36.5493H4.90595V37.4511H0.0742188H0.0849664ZM8.19146 37.4511V29.2694H9.21157V37.4511H8.19146ZM14.9882 37.4511V30.1821H12.4005V29.2694H18.6066V30.1821H16.0082V37.4511H14.9882ZM21.8063 37.4511V29.2694H22.8262V37.4511H21.8063ZM26.2515 33.371C26.2321 32.8121 26.3276 32.2551 26.532 31.7346C26.7364 31.214 27.0454 30.7409 27.4399 30.3444C27.8343 29.9479 28.3059 29.6365 28.8254 29.4295C29.3449 29.2224 29.9015 29.1241 30.4605 29.1406C31.8993 29.1406 32.93 29.7848 33.6387 30.676L32.8334 31.1699C32.549 30.8173 32.1892 30.5329 31.7804 30.3378C31.3715 30.1426 30.9241 30.0418 30.4711 30.0425C28.6673 30.0425 27.3037 31.4169 27.3037 33.371C27.3037 35.3037 28.6674 36.6996 30.4605 36.6996C31.2794 36.6966 32.0664 36.3818 32.6615 35.8191V34.1549H29.8484V33.2529H33.6709V36.2057C33.2669 36.6554 32.7714 37.0135 32.2177 37.2561C31.664 37.4987 31.0649 37.6201 30.4605 37.6122C29.9009 37.6272 29.3442 37.5275 28.8246 37.3192C28.305 37.111 27.8336 36.7986 27.4393 36.4013C27.0451 36.004 26.7362 35.5302 26.532 35.0091C26.3277 34.4879 26.2322 33.9305 26.2515 33.371ZM42.9907 37.4511L42.2606 35.6473H38.1805L37.461 37.4511H36.2907L39.5871 29.2694H40.854L44.1504 37.4511H42.9907ZM40.2206 30.3324L38.4811 34.7347H41.9492L40.2206 30.3324ZM48.2627 37.4511V30.1821H45.6857V29.2694H51.8919V30.1821H49.2827V37.4511H48.2627ZM55.0915 37.4511V29.2694H56.1007V37.4511H55.0808H55.0915ZM59.526 33.371C59.526 30.9552 61.1688 29.1406 63.5847 29.1406C66.0113 29.1406 67.654 30.9552 67.654 33.371C67.654 35.7869 66.0113 37.6015 63.5847 37.6015C61.1688 37.6015 59.526 35.7869 59.526 33.371ZM66.6017 33.371C66.6017 31.4491 65.4207 30.0425 63.5954 30.0425C61.7486 30.0425 60.5889 31.4491 60.5889 33.371C60.5889 35.2715 61.7486 36.6996 63.5954 36.6996C65.4207 36.6996 66.6017 35.2715 66.6017 33.371ZM76.888 37.4511L72.1099 30.9337V37.4511H71.1007V29.2694H72.1422L76.8558 35.6581V29.2694H77.865V37.4511H76.8988H76.888Z" fill="white"/>
</svg>
