<svg width="54" height="55" viewBox="0 0 54 55" fill="none" xmlns="http://www.w3.org/2000/svg">
<path fill-rule="evenodd" clip-rule="evenodd" d="M26.8711 0.700388C12.0223 0.771349 0.038367 12.8299 0.109569 27.6286C0.18077 42.4272 12.2802 54.3707 27.1289 54.2998C41.9777 54.2288 53.9617 42.1697 53.8905 27.3716C53.8193 12.573 41.7199 0.629427 26.8711 0.700388ZM26.8732 1.14334C12.2699 1.21269 0.483898 13.0723 0.554021 27.6259L0.55456 27.6264C0.624143 42.1799 12.524 53.9261 27.1268 53.8562C41.7295 53.7863 53.5155 41.9278 53.4454 27.3737C53.3758 12.8197 41.476 1.07345 26.8732 1.14334Z" fill="white"/>
<path d="M34.9471 6.05688C34.857 6.36868 34.5301 6.5477 34.2183 6.45685C33.906 6.36707 33.7264 6.04129 33.8165 5.73057C33.9066 5.41931 34.2334 5.24029 34.5458 5.33007C34.8581 5.41985 35.0377 5.74562 34.9471 6.05635V6.05688Z" fill="white"/>
<path d="M27.5081 50.727C27.4181 51.0377 27.0912 51.2172 26.7789 51.1269C26.4665 51.0372 26.2869 50.7114 26.3775 50.4007C26.4682 50.0889 26.795 49.9098 27.1068 50.0002C27.4191 50.0905 27.5988 50.4157 27.5081 50.727Z" fill="white"/>
<path d="M5.75499 20.5195C5.66437 20.8308 5.33803 21.0098 5.02571 20.9195C4.7134 20.8297 4.53377 20.5039 4.62385 20.1932C4.71447 19.882 5.04081 19.7029 5.35313 19.7927C5.66545 19.883 5.84507 20.2083 5.75499 20.5195Z" fill="white"/>
<path d="M29.7014 4.24469L29.9284 5.19729L29.3033 5.13116L29.7014 4.24469ZM31.0154 6.91863C31.0979 6.9224 31.359 6.91111 31.2435 6.82348H31.2829C31.2683 6.72456 31.1518 6.68478 31.099 6.69016C30.8773 6.62027 30.8185 6.41062 30.7516 6.20418C30.6297 5.82519 30.5326 5.42253 30.4371 5.0645L30.0795 3.72592C30.0223 3.50819 29.9252 3.07168 29.6916 3.45712C29.6355 3.54905 29.5347 3.77752 29.4689 3.91138C29.1237 4.61508 28.7957 5.33061 28.4321 6.02517C28.3847 6.11602 28.3453 6.22837 28.2655 6.29503C28.1279 6.41062 28.1171 6.31923 27.9758 6.36223C27.889 6.38857 27.7989 6.42728 27.8539 6.53426C27.9057 6.63425 28.1554 6.61275 28.2439 6.61974C28.396 6.63156 28.9392 6.79123 28.9764 6.59178C29.0352 6.27891 28.6134 6.65629 28.8302 6.14128C28.9041 6.03108 29.0115 5.53328 29.1544 5.44888C29.2224 5.40856 29.9549 5.48436 30.0137 5.53919C30.0671 5.58919 30.0811 5.79508 30.1 5.86604C30.1507 6.05796 30.2062 6.24934 30.2516 6.44287L30.2904 6.59017L30.2364 6.67188C30.2472 6.77402 30.2602 6.84015 30.4171 6.84391C30.6146 6.86971 30.8168 6.90896 31.0154 6.91863ZM37.2239 9.32486C37.6128 9.53291 38.1986 9.65279 38.6183 9.47754C39.0849 9.32755 39.4527 9.00177 39.6906 8.57762L39.6561 8.55827L39.6906 8.57708C40.2715 7.53094 39.6717 6.48104 38.6226 6.06656C38.4322 5.9913 38.0751 5.84776 37.876 5.96818C37.7849 6.02355 37.6549 6.32944 37.6214 6.43857C37.5902 6.53964 37.5438 6.66866 37.6829 6.68801C37.7914 6.70306 37.8448 6.52243 37.9041 6.46814C38.0152 6.36761 38.128 6.32836 38.2833 6.33159C39.1571 6.34879 39.5309 7.35031 39.2672 8.0653C39.0083 7.92231 38.7472 7.78092 38.4894 7.63523C38.4003 7.5847 38.1182 7.30784 38.0389 7.32397C37.8825 7.39601 37.7088 7.63685 37.6252 7.75189C37.4203 8.08519 38.0023 7.8035 38.0174 7.80135C38.3033 7.81317 38.7499 8.12712 38.9856 8.28786C39.1415 8.39377 39.1512 8.35184 39.0244 8.54698C38.9074 8.72707 38.7655 8.89802 38.5848 9.01844C38.2358 9.25121 37.8183 9.23132 37.4364 9.02919C37.1193 8.86147 36.8345 8.64321 36.9407 8.25292C36.9828 8.09809 37.0087 7.87446 36.7692 8.04272C36.6548 8.12336 36.3641 8.55289 36.4585 8.72546C36.5691 8.98565 36.9903 9.19961 37.2239 9.32486ZM42.0893 12.7246C42.1686 12.5342 41.7765 12.459 42.0208 12.2821C42.2517 11.9934 42.536 11.7418 42.7981 11.4811C42.7582 12.0757 42.6314 12.9342 42.7927 13.4616C42.8165 13.639 42.9481 13.8078 43.0792 13.9449L43.2658 14.1309C43.4233 14.2749 43.6153 14.3024 43.5155 14.0459L43.3548 13.7632C43.275 13.5272 43.2879 13.2568 43.2841 13.0068C43.2793 12.6735 43.2857 12.3396 43.2917 12.0069L43.2987 11.6757C43.3041 11.4386 43.3186 11.4688 43.5554 11.4682C43.9379 11.4677 44.3209 11.472 44.7033 11.479C44.8791 11.4822 45.0383 11.501 45.1996 11.5752C45.2513 11.5988 45.3484 11.7037 45.4061 11.6913C45.6893 11.6295 45.3004 11.3231 45.2303 11.2553C45.1397 11.1672 45.0469 11.0156 44.9417 10.9543C44.7848 10.8629 44.8139 10.9274 44.7195 11.0064C44.6343 11.0779 44.7945 11.0591 44.61 11.1053C44.4902 11.1355 44.3219 11.115 44.2011 11.1161L43.1477 11.1328C43.3607 10.921 43.5894 10.5758 43.8473 10.4366C44.0522 10.3258 43.9945 10.4925 44.1768 10.4925C44.3489 10.4925 44.3004 10.3511 44.248 10.2619C44.1456 10.0872 43.8634 9.87374 43.7103 9.7259C43.5916 9.61193 43.31 9.47055 43.4211 9.76998C43.5177 10.0296 43.5991 9.9447 43.3537 10.192L42.1266 11.4123C41.9809 11.5564 41.7598 11.8644 41.5613 11.9322C41.4302 11.9768 41.2926 11.8107 41.1982 11.8994C41.051 12.0381 41.5041 12.3477 41.5899 12.445C41.6648 12.5273 41.9901 12.9606 42.0888 12.7235L42.0893 12.7246ZM47.6738 15.5668C48.0746 15.7022 48.4182 16.0957 48.4721 16.5468C48.546 17.1639 48.1032 17.6596 47.5907 17.9305C47.1975 18.138 46.7023 18.274 46.2838 18.0515C45.7681 17.7773 45.5825 17.129 45.7875 16.6011C46.0551 15.9221 46.9456 15.3813 47.6744 15.5673L47.6738 15.5668ZM47.5239 18.5713C48.5908 18.2886 49.3438 17.0102 48.6496 16.0447C48.5002 15.5383 47.882 15.1808 47.3895 15.0985C46.5632 14.9609 45.6964 15.4248 45.3765 16.2033C44.8382 17.5037 46.1624 18.9326 47.5239 18.5713ZM47.6533 22.214C47.5859 22.1635 47.6242 21.9877 47.4856 22.0043C47.3755 22.0178 47.3885 22.1463 47.3874 22.178C47.382 22.3844 47.4883 22.6575 47.5244 22.8699C47.54 22.9607 47.546 23.2596 47.7056 23.2488C47.7736 23.244 47.8275 23.1682 47.7828 23.1268C47.9236 23.0473 47.6814 22.8881 47.9856 22.7871C48.2564 22.6968 48.5557 22.6613 48.8352 22.6075C48.9069 22.5935 49.1254 22.5172 49.1734 22.5527C49.2845 22.6333 49.3158 23.2843 49.3406 23.4123L49.4954 24.2101C49.1059 24.2853 48.5984 24.474 48.2197 24.4305C48.0509 24.4111 48.1555 24.4267 48.0487 24.3213C47.9861 24.2595 47.9953 24.1923 47.9009 24.2031C47.7461 24.2611 47.9263 25.3723 48.0697 25.4309C48.1776 25.475 48.2218 25.3793 48.2359 25.3083C48.2731 25.1186 48.1539 25.0449 48.3643 24.9944C48.9695 24.8251 49.6049 24.7353 50.2225 24.617C50.4242 24.5783 50.6362 24.517 50.8407 24.4982C51.0381 24.4799 51.0122 24.503 51.1179 24.6159C51.1611 24.6622 51.2236 24.7417 51.256 24.7326C51.4642 24.6901 51.2792 24.2525 51.2555 24.13C51.2285 23.9918 51.2377 23.8079 51.1805 23.6795C51.1298 23.5649 50.9005 23.4461 50.9383 23.6762C51.0133 23.9284 50.8477 23.9493 50.6109 23.995C50.4879 24.0187 49.9253 24.209 49.8282 24.1353C49.7894 24.1063 49.7802 23.8886 49.771 23.8429L49.5051 22.4774L50.0979 22.3634C50.2166 22.3409 50.3541 22.2898 50.4739 22.2909C50.5855 22.2919 50.5968 22.3043 50.6837 22.3946C50.7511 22.4645 50.8202 22.6564 50.9243 22.4516C50.9599 22.3817 50.8919 22.2135 50.8773 22.15C50.8261 21.9232 50.79 21.6947 50.7506 21.4651C50.7366 21.298 50.476 21.3006 50.5138 21.4856C50.7711 21.7705 49.9663 21.8409 49.8627 21.8613C49.3875 21.9527 48.9134 22.0463 48.4376 22.135C48.2995 22.1613 47.8114 22.3323 47.6533 22.214ZM48.2062 30.6498C47.6015 28.7871 51.2549 28.4322 51.0494 30.3821C50.9049 31.7481 48.6005 31.7911 48.2062 30.6498ZM47.8799 29.7628C47.6749 30.6138 48.0406 31.5062 48.8616 31.8739C49.4269 32.1271 50.3568 32.1405 50.7571 31.6755C51.3369 31.261 51.5074 30.31 51.2965 29.6665C50.7695 28.0575 48.2774 28.1151 47.8799 29.7628ZM47.3766 35.0166C47.2995 34.9736 47.1587 34.9311 47.1171 34.8585C47.0562 34.7526 47.1678 34.6698 47.1215 34.5736C46.9726 34.2645 46.739 34.9763 46.6872 35.0892C46.6425 35.1859 46.4526 35.5665 46.7191 35.4983C46.7957 35.4784 46.8512 35.3268 46.8863 35.2639C47.4192 35.5966 48.0584 35.8703 48.6269 36.1708C48.2051 36.1831 47.7838 36.1917 47.3841 36.2181C47.1042 36.2364 46.8232 36.2509 46.5432 36.2735C46.3458 36.289 46.0734 36.2697 46.1818 36.5385C46.2778 36.7756 46.6257 37.0438 46.7886 37.2282L47.7423 38.3055C47.1096 38.1039 46.438 37.9464 45.8242 37.6948C45.7115 37.6486 45.7622 37.5024 45.5901 37.6685L45.548 37.7378C45.4628 37.8685 45.4121 38.0561 45.3501 38.2002C45.3112 38.291 45.1429 38.5733 45.3198 38.6195C45.4757 38.6603 45.5005 38.398 45.5912 38.327C45.7681 38.1883 46.04 38.3276 46.2331 38.3862L47.5622 38.7861C47.8836 38.8829 48.2202 39.0254 48.5514 39.084C48.9112 39.1474 48.7731 38.8904 48.6188 38.7189L46.8679 36.7723L48.6803 36.6809C48.9856 36.6654 49.2942 36.6627 49.5984 36.6347C49.7343 36.6224 50.0488 36.5331 49.7721 36.3595C48.9765 35.9063 48.1744 35.4633 47.3755 35.016L47.3766 35.0166ZM45.8754 42.8427C45.7023 42.9132 45.774 43.0185 45.5809 42.9148C45.4083 42.8218 45.2341 42.603 45.0847 42.4691L44.0134 41.5069C43.8241 41.3364 43.6418 41.1397 43.4368 40.9875C43.1795 40.7967 43.1228 40.9591 43.1687 41.2112C43.351 42.1998 43.5139 43.19 43.645 44.1867L42.8391 43.462C42.6617 43.3024 42.0661 42.9126 42.0629 42.675C42.0618 42.5987 42.1967 42.5449 42.1525 42.4492C42.057 42.2428 41.8612 42.5197 41.7927 42.6003C41.6929 42.7175 41.0229 43.3303 41.3509 43.3669C41.4572 43.3787 41.4965 43.2282 41.5807 43.2029C41.6869 43.1707 41.7457 43.2341 41.8337 43.2992C42.2242 43.5884 42.5748 43.9486 42.9362 44.2738C43.0997 44.4206 43.9724 45.3898 44.1553 45.1925C44.2216 45.1205 44.1688 44.9759 44.1547 44.9001C44.1062 44.642 44.0636 44.3835 44.0204 44.1249L43.9417 43.6475C43.851 43.0804 43.7712 42.5132 43.6941 41.9439L45.0388 43.1524C45.0965 43.204 45.2718 43.3223 45.2859 43.4083C45.3047 43.5206 45.1413 43.5954 45.2136 43.7104C45.2832 43.8201 45.3846 43.712 45.4477 43.6663C45.5701 43.5782 46.1349 42.9992 46.0712 42.8653C46.0373 42.7621 45.9353 42.8186 45.8749 42.8433L45.8754 42.8427ZM40.093 47.9154C39.9878 47.8837 39.9258 47.6918 39.8794 47.6149L39.5229 47.0241C39.251 46.5747 38.9203 46.1204 38.7094 45.6409C38.683 45.5807 38.6231 45.5027 38.6371 45.4366C38.6523 45.3656 38.7742 45.3506 38.7855 45.2699C38.8022 45.1522 38.7175 45.1253 38.6096 45.1436C38.4953 45.1635 38.3739 45.2947 38.2752 45.3549L37.7995 45.6264C37.6031 45.7016 37.7466 45.8634 37.8879 45.8495C38.115 45.8269 38.0346 45.693 38.2062 45.8823C38.4376 46.1381 38.6161 46.5263 38.7979 46.8284C38.5449 46.7478 38.2898 46.6671 38.0319 46.6021C37.5805 46.4585 36.9024 46.2172 36.4628 46.4322C36.3323 46.4962 36.1597 46.5795 36.0485 46.673C35.8862 46.8107 35.9061 46.9311 36.123 46.9042C36.2654 46.8865 36.3544 46.8128 36.507 46.8123C36.7298 46.8117 36.9569 46.8746 37.171 46.9241C37.4397 46.9859 37.7061 47.058 37.9726 47.1273L38.4365 47.2515C38.4737 47.2617 38.6668 47.2875 38.6857 47.3203C38.7127 47.3665 38.6242 47.5773 38.6096 47.6353C38.5093 48.0353 38.4241 48.703 38.1878 49.0486C38.1641 49.0825 37.9683 49.2405 37.9661 49.2948C37.9613 49.4185 38.074 49.4663 38.17 49.4013C38.3335 49.2965 38.655 49.1728 38.7855 49.032C38.964 48.84 38.758 48.8691 38.717 48.7476C38.6722 48.6153 38.8152 48.2691 38.8459 48.1385L39.0525 47.2499L39.4533 47.9165C39.4905 47.9788 39.6167 48.131 39.5994 48.2143C39.5746 48.3336 39.3999 48.3342 39.4252 48.4734C39.4695 48.7142 39.9172 48.3412 39.9894 48.2987C40.024 48.2783 40.77 47.8525 40.3924 47.8251C40.3751 47.8014 40.155 47.9342 40.093 47.9154ZM34.2022 50.7103C34.1342 50.6716 34.1315 50.5813 34.1099 50.5141C34.0274 50.2534 33.9778 49.9765 33.9103 49.7109C33.8041 49.2932 33.6757 48.7745 33.564 48.325C33.5015 48.0745 33.3623 47.2176 33.0867 47.8364C32.6778 48.7551 32.2625 49.6685 31.812 50.5678C31.7026 50.1281 31.5909 49.6894 31.4841 49.2491C31.4361 49.0508 31.2419 48.5911 31.387 48.4143C31.4399 48.3498 31.5736 48.3578 31.5526 48.2444C31.5192 48.067 30.5655 48.3283 30.4447 48.3928C30.2165 48.5148 30.3379 48.6094 30.497 48.6261C30.6696 48.6444 30.7397 48.5336 30.7818 48.7417C30.9646 49.3024 31.0866 49.8867 31.229 50.4593C31.2716 50.6297 31.4016 51.7081 31.6616 51.6882C31.8784 51.6237 32.0613 50.9339 32.1573 50.7243L32.3574 50.2888C32.5996 49.7668 32.8536 49.2508 33.1109 48.7358L33.3936 49.8695C33.4556 50.1184 33.714 50.6866 33.5484 50.9001C33.4961 50.9673 33.3483 50.9511 33.3839 51.0737C33.4233 51.2103 33.5576 51.1457 33.6406 51.1285C33.8138 51.092 34.5954 50.9839 34.5625 50.777C34.5188 50.5942 34.3057 50.7689 34.2016 50.7098L34.2022 50.7103ZM22.3859 49.3319C22.36 49.4427 22.325 49.8265 22.2376 49.8781C22.1189 49.9485 21.7942 49.7254 21.7155 49.641C21.6027 49.5212 21.5326 49.3599 21.5072 49.1986C21.4641 48.9239 21.5197 48.5358 21.8066 48.4116C21.9523 48.353 22.5337 48.3734 22.5337 48.6186C22.5337 48.847 22.4377 49.1105 22.3865 49.3325L22.3859 49.3319ZM21.4538 50.9442C21.3627 50.6797 21.4134 50.305 21.6529 50.1286L21.7683 50.0631C21.8115 50.0813 22.1567 50.1141 22.1907 50.1759C22.2123 50.2146 22.1389 50.3974 22.1292 50.4394L21.9452 51.2296C21.7284 51.2296 21.5213 51.106 21.4538 50.9442ZM22.8051 48.2406C22.4717 48.1552 22.1578 48.0288 21.8061 48.0815C20.8535 48.224 20.6663 49.368 21.3988 49.9147C20.8681 50.2808 20.641 51.0366 21.3686 51.3861C21.7289 51.5592 22.2047 51.5989 22.5931 51.6995C22.6405 51.7177 22.7608 51.7043 22.777 51.6134C22.7943 51.5151 22.7031 51.5092 22.6427 51.4667C22.5122 51.3764 22.5025 51.3753 22.4474 51.2818C22.5515 51.1828 22.5796 50.8065 22.6179 50.6426L22.8547 49.6217C22.8946 49.4518 22.9814 48.6858 23.167 48.5788C23.1956 48.5621 23.632 48.5782 23.3935 48.3853C23.2592 48.274 22.9734 48.2831 22.8056 48.2401L22.8051 48.2406ZM15.9961 45.7419C16.118 45.6758 16.0361 45.5764 15.9681 45.5129C15.8214 45.3769 15.5554 45.2845 15.3807 45.178C15.2965 45.1264 15.0716 44.9409 14.9713 45.0474C14.8386 45.1882 15.1034 45.2533 15.1525 45.3361C15.2377 45.478 15.0576 45.707 14.9842 45.8387C14.7701 46.2225 14.5446 46.6015 14.324 46.9822C14.2166 47.1671 13.8633 48.031 13.6023 47.8358C13.5774 47.8176 13.4674 47.8224 13.4394 47.8896C13.3709 48.0552 13.7565 48.1853 13.8488 48.2369C13.9804 48.3111 14.1222 48.4487 14.2652 48.4901C14.3946 48.5272 14.5964 48.4191 14.4141 48.303C14.3542 48.2691 14.3083 48.2294 14.2808 48.1648C14.3709 47.8595 14.6331 47.5235 14.7954 47.2434C15.0705 46.7693 15.3192 46.2435 15.6515 45.8086C15.8235 45.5887 15.809 45.8446 15.9967 45.743L15.9961 45.7419ZM16.8775 47.6643C16.8522 47.7079 16.781 47.8864 16.7313 47.903C16.5631 47.96 16.2788 47.538 16.2502 47.4762C16.1385 47.1149 16.2448 46.4548 16.7055 46.4069C16.9293 46.379 17.2913 46.5596 17.3608 46.7945C17.3188 47.0821 17.0183 47.4224 16.8781 47.6638L16.8775 47.6643ZM17.3258 46.2811C16.7276 45.9382 15.9174 46.0392 15.6774 46.7693C15.5662 47.1085 15.6763 47.4649 15.9061 47.7289C16.0528 47.8966 16.3635 47.9837 16.4897 48.1525L16.5372 48.2514C16.5361 48.3121 16.4331 48.4299 16.4034 48.482C16.2987 48.6621 16.2097 48.8745 16.0808 49.0379C15.9142 49.2491 15.9794 49.089 15.7906 49.1062C15.618 49.1223 15.6277 49.2293 15.7383 49.3389C15.8025 49.4024 15.9336 49.4421 16.0156 49.4878C16.1558 49.5658 16.3214 49.7233 16.4697 49.7604C16.5409 49.7781 16.6003 49.8389 16.6682 49.7496C16.7686 49.6174 16.576 49.5889 16.5312 49.5088C16.4287 49.3249 16.645 49.1035 16.7405 48.939C16.9671 48.5487 17.192 48.1579 17.4202 47.7681C17.5502 47.5455 17.6705 47.2649 17.8474 47.073C18.0416 46.8623 17.9229 47.0488 18.1511 47.0176C18.2724 46.9934 18.3086 46.8612 18.1716 46.7827C17.8819 46.6247 17.6111 46.4446 17.3252 46.2806L17.3258 46.2811ZM10.7725 41.2493C10.7299 41.2391 10.6479 41.2628 10.5859 41.295C10.5023 41.3424 10.1166 41.5681 10.1511 41.6407L10.1199 41.6154C9.96721 41.7558 10.1253 41.831 10.2439 41.8224C10.2989 41.8181 10.4381 41.7176 10.4306 41.7219C10.7439 41.6063 11.0045 41.8229 11.2159 42.0369C11.6361 42.4724 11.7553 43.1126 11.5013 43.6658C11.2758 44.1555 10.6792 44.6668 10.1074 44.6023C9.59771 44.5453 8.96931 43.984 8.91051 43.4658C8.88138 43.2067 9.08312 43.1497 9.12411 42.9578C9.15162 42.8309 9.03889 42.7368 8.92615 42.8293C8.71794 42.9798 8.28318 43.2459 8.36517 43.4959C8.40724 43.6244 8.57662 43.7878 8.65915 43.9007C8.87491 44.1964 9.11872 44.4781 9.42348 44.6872C9.97314 45.064 10.6706 45.1162 11.2472 44.7678C11.5126 44.6076 11.7435 44.377 11.9112 44.1174C12.0002 43.9792 12.3104 43.368 12.155 43.2357C12.2462 43.0056 12.0552 42.5777 11.9279 42.3541C11.7095 41.966 11.2386 41.3622 10.7725 41.2493ZM8.53886 38.8453C8.69097 38.7851 8.64674 38.9039 8.79346 38.9668C8.86034 38.9958 9.02163 39.0302 8.95312 38.8861C9.00221 38.7453 8.75624 38.4034 8.67263 38.2254C8.47197 37.7954 8.26862 37.3669 8.07012 36.9363C7.829 36.4122 7.58195 35.8939 7.33706 35.3682C7.23673 35.1531 7.16068 34.8032 7.00803 34.6327C6.94545 34.5634 6.87965 34.472 6.78957 34.5736C6.69733 34.6774 6.87749 34.822 6.84297 34.9284C6.77986 35.1225 5.95834 35.402 5.83859 35.4574L4.70908 35.9815C4.59365 36.0353 4.34714 36.1987 4.22146 36.1568C4.13731 36.1283 3.98142 35.7735 3.91292 36.0821C3.88325 36.2154 4.07258 36.438 4.12652 36.5514C4.2015 36.71 4.24627 36.9422 4.37411 37.0691C4.66485 37.2642 4.47444 36.761 4.50087 36.7019C4.5834 36.5181 5.23878 36.3288 5.40276 36.2525L6.22481 35.8713C6.44111 35.7714 6.70973 35.5687 6.9379 35.5595C7.09433 35.5536 6.9913 35.5246 7.07977 35.6208C7.20275 35.7536 7.27179 36.0321 7.34839 36.1955C7.38345 36.2708 7.5771 36.5573 7.55768 36.6433C7.51669 36.8234 6.86293 37.0126 6.67683 37.0997L5.82565 37.4938C5.62661 37.5862 5.15733 37.9093 4.96584 37.7932C4.88978 37.747 4.91513 37.6223 4.78298 37.6422C4.66431 37.6599 4.70045 37.7685 4.71447 37.8421C4.73821 37.969 4.85472 38.1136 4.90974 38.2313C4.96044 38.3389 5.01546 38.634 5.13197 38.6926C5.30566 38.7797 5.35691 38.5775 5.28624 38.5044C5.21073 38.2437 5.81486 38.0926 5.98963 38.0115C6.45567 37.7943 7.00101 37.5707 7.41528 37.3508C7.42607 37.3465 7.80311 37.1664 7.82199 37.2099C7.96547 37.5115 8.11165 37.826 8.25783 38.1405C8.30799 38.2491 8.33281 38.2545 8.28857 38.3254C8.21252 38.4475 7.88672 38.5335 7.74485 38.6001C7.16769 38.8705 6.59268 39.1705 6.00149 39.4097C5.86826 39.4635 5.82996 39.4732 5.71831 39.4108C5.64117 39.3678 5.51495 39.1404 5.45885 39.3925C5.42433 39.5479 5.73665 40.0253 5.81001 40.1774C5.85154 40.2634 5.8866 40.4285 6.01822 40.4005C6.2178 40.3575 6.02091 40.1726 6.03871 40.0774C6.07701 39.8742 6.4163 39.8097 6.59214 39.728C7.22217 39.4366 7.84572 39.1076 8.49679 38.8641L8.53994 38.8447L8.53886 38.8453ZM4.57746 31.3019L3.61732 31.1315L4.49062 30.682L4.57746 31.3019ZM6.07216 32.1475C6.10182 32.2018 6.0727 32.2803 6.11369 32.3297C6.20971 32.4464 6.37476 32.3878 6.32244 32.2066C6.30518 32.0755 6.29601 31.347 6.1385 31.2766C5.95619 31.1949 5.98747 31.4535 5.95241 31.5341C5.72856 31.5572 5.46533 31.4728 5.23554 31.4293C4.92592 31.3707 4.92484 31.3922 4.88169 31.0831C4.85202 30.8713 4.749 30.6175 4.87953 30.4751C5.01816 30.324 5.44753 30.1208 5.64818 30.0552L5.77602 29.9886L5.84561 30.0332C6.01983 29.9644 5.97884 29.8407 5.95888 29.6735C5.94648 29.5682 5.95295 28.9693 5.76524 28.9784C5.59856 28.9865 5.6676 29.1919 5.65142 29.2902C5.57806 29.4891 5.33964 29.6026 5.16596 29.7036C4.749 29.9445 4.3261 30.1751 3.90429 30.4073L3.29422 30.7428C3.18634 30.8019 2.66419 31.0062 2.64909 31.1696C2.62428 31.432 4.17129 31.6137 4.33311 31.6486L5.69565 31.9389C5.84561 31.9642 5.99664 32.0115 6.07216 32.1486V32.1475ZM3.04771 24.195C3.09356 24.1644 3.32389 24.2289 3.37675 24.2359C3.61786 24.2654 4.09038 24.2289 4.30021 24.3498C4.63248 24.5412 4.09254 25.0879 3.87192 25.167C3.44094 25.3207 2.86647 25.1315 2.93336 24.5971C2.94684 24.5154 2.97867 24.2412 3.04771 24.195ZM4.44693 25.2911C4.80563 25.5556 5.26575 25.854 5.50039 26.2416C5.60072 26.4072 5.55972 26.5324 5.60395 26.6932C5.62229 26.7587 5.63254 26.8399 5.71507 26.8394C5.87366 26.8388 5.86772 26.5168 5.88013 26.3953C5.94054 25.8185 5.59155 25.5185 5.15679 25.1643C5.02571 25.0573 4.72742 24.9025 4.68481 24.7471C4.55481 24.274 4.99874 24.4337 5.27707 24.4724C5.47072 24.4993 5.77009 24.4858 5.84021 24.681C5.85909 24.7337 5.81108 25.0363 5.94809 24.9487C6.1029 25.0352 6.12502 24.3219 6.13904 24.2273C6.14552 24.1821 6.25016 23.5176 5.99125 23.7735C5.86664 23.9638 5.95079 23.9929 5.65142 23.98C5.22098 23.9612 4.78837 23.8848 4.36008 23.8321L3.51591 23.7284C3.28451 23.6999 2.96572 23.7219 3.02398 23.416C3.02937 23.3478 3.00456 23.3026 2.93336 23.28L2.92203 23.3177C2.87348 23.23 2.82062 23.3322 2.78448 23.4198C2.72299 23.5698 2.75266 23.7934 2.72622 23.9563C2.66743 24.3181 2.54714 24.7105 2.67444 25.0503C2.90207 25.8868 3.98412 25.9782 4.44747 25.2906L4.44693 25.2911ZM13.3018 11.4306C13.1513 11.3365 13.0909 11.5403 12.9598 11.5279C12.8956 11.5214 12.7905 11.3897 12.7489 11.3446C12.5234 11.1005 12.3287 10.8247 12.1248 10.5629C12.7538 10.6839 13.4448 10.8425 14.0818 10.8134C14.3305 10.793 14.7172 10.5866 14.8833 10.3748C15.015 10.2065 14.9702 10.1135 14.7663 10.1651L14.5505 10.2699C14.1756 10.3877 13.6842 10.2662 13.3061 10.2173C13.0769 10.1877 12.8471 10.1576 12.6178 10.1248C12.5159 10.1103 12.3724 10.121 12.285 10.0764C12.1647 10.0151 12.2225 10.1237 12.1842 9.97373C12.1658 9.90115 12.209 9.76676 12.2181 9.69419C12.2613 9.35121 12.3055 9.00661 12.3557 8.66471C12.3751 8.53085 12.3967 8.40075 12.462 8.27926C12.5073 8.1954 12.7117 8.03681 12.6254 7.92983C12.5046 7.77931 12.202 8.1282 12.1135 8.19594C12.0369 8.25453 11.8972 8.3099 11.8454 8.38893C11.7348 8.55934 11.8319 8.50505 11.9031 8.60396L11.9722 8.68084C12.0186 8.80072 11.9323 9.12596 11.9188 9.25068L11.8206 10.1737L11.4414 9.68881C11.3751 9.60333 11.2548 9.50012 11.2132 9.39744C11.1512 9.24369 11.1981 9.30175 11.2451 9.15983C11.285 9.03833 11.3653 8.88243 11.1129 8.96092C10.95 9.01145 10.7504 9.2539 10.6091 9.35658C10.5406 9.40604 10.2099 9.59097 10.3308 9.72321C10.4575 9.86137 10.6042 9.58721 10.7704 9.68128C10.9861 9.80385 11.244 10.2818 11.3945 10.4742C11.7327 10.9059 12.2262 11.4118 12.4409 11.8719C12.462 11.9542 12.148 12.3671 12.5402 12.1956C12.6944 12.1284 12.853 11.9391 12.9938 11.8354C13.119 11.7435 13.4216 11.6031 13.3018 11.429V11.4306ZM17.5583 8.13573C16.8554 7.9051 16.2696 6.94874 16.4768 6.2187C16.6618 5.56607 17.4326 5.24728 18.0443 5.50371C18.6462 5.7553 19.0524 6.51276 19.0524 7.14818C19.0524 7.90456 18.2428 8.36044 17.5583 8.13626V8.13573ZM17.1208 5.16127C16.2712 5.50263 15.7793 6.37137 16.0242 7.27129C16.296 8.27012 17.3171 8.87383 18.3107 8.50935C19.2585 8.16153 19.7687 7.16485 19.4235 6.20149C19.0745 5.22201 18.0917 4.77098 17.1208 5.16127ZM25.562 6.35094C25.1725 6.22246 24.9341 5.53596 24.7502 5.20696C24.4438 4.65809 24.1671 4.06782 23.8267 3.53937C23.5861 3.16522 23.4982 3.51142 23.448 3.74527L23.0397 5.64832C22.9631 6.00635 22.9421 6.75467 22.5283 6.7923C22.4749 6.79768 22.4097 6.84821 22.4178 6.92186C22.4631 7.10679 23.4275 6.96218 23.5381 6.8423C23.6562 6.65092 23.3542 6.71489 23.3029 6.66919C23.2242 6.59877 23.311 6.35256 23.3315 6.24504C23.4561 5.59617 23.5726 4.97365 23.6886 4.32102C24.0166 4.95215 24.324 5.53166 24.6601 6.14505C24.7129 6.24181 24.8089 6.36008 24.8365 6.4676C24.8435 6.4934 24.7685 6.5434 24.7895 6.58641C24.8478 6.70575 24.947 6.67188 25.0571 6.66651C25.2076 6.65952 25.8376 6.66866 25.85 6.44932C25.7939 6.27676 25.6779 6.38965 25.5625 6.35202L25.562 6.35094ZM5.34989 16.5296C5.41732 16.5151 5.53005 16.6048 5.59316 16.643C5.91789 16.8371 6.23614 17.0435 6.55708 17.244C6.91201 17.4661 7.30038 17.6682 7.62618 17.9289L7.68066 17.9698C7.86298 18.1767 7.69253 18.0192 7.73622 18.2117C7.78962 18.4461 7.90829 18.3789 8.01887 18.1988C8.14455 17.9934 8.267 17.787 8.39538 17.5832C8.72064 17.065 9.10308 16.5178 9.39543 16.0119C9.71099 15.4657 10.0697 14.9362 10.4095 14.3997C10.4759 14.3131 10.4295 14.169 10.2892 14.1975C10.2045 14.2147 10.1128 14.3932 10.0864 14.4228C9.91974 14.4373 9.72501 14.2739 9.58584 14.1905C9.28647 14.0105 8.99142 13.8228 8.69475 13.6374C8.38729 13.4455 7.9536 13.2734 7.7017 13.0175C7.54581 12.8589 7.6483 12.9433 7.64884 12.7874C7.64884 12.7047 7.72382 12.5816 7.55175 12.5885C7.40665 12.5945 7.2815 12.945 7.22379 13.0369C7.15151 13.1519 6.85699 13.4455 6.93467 13.5976C7.0323 13.7895 7.20275 13.4734 7.31063 13.4229C7.62511 13.5514 7.95199 13.8078 8.2492 13.9933C8.69421 14.2706 9.19477 14.6039 9.59825 14.8528C9.72501 14.9738 9.5497 15.105 9.46502 15.2394C9.38519 15.3668 9.15216 15.9162 9.0103 15.9619C8.89649 15.999 8.49355 15.6818 8.38621 15.6157L7.59112 15.1206C7.32034 14.9512 6.98537 14.7991 6.74318 14.5921C6.68492 14.5427 6.63368 14.5045 6.62721 14.4432C6.61588 14.3421 6.78579 14.2631 6.64555 14.1647C6.508 14.0691 5.86071 14.9953 6.01444 15.1507C6.16062 15.2345 6.16008 15.0711 6.25124 15.0286C6.40983 14.9539 6.60617 15.1399 6.75127 15.2308L7.86946 15.928C8.06418 16.0501 8.44932 16.2296 8.59604 16.4C8.70338 16.5247 8.67101 16.4366 8.61438 16.5941C8.56475 16.7328 8.43907 16.8731 8.36086 16.9978C8.28426 17.1198 8.19688 17.3451 8.08468 17.4376L7.9946 17.4827C7.86892 17.4865 7.59112 17.2548 7.47947 17.186L6.61642 16.6484C6.52094 16.5892 5.83644 16.0807 5.73719 16.1468C5.77063 16.0662 5.67246 16.0877 5.66167 15.9947L5.71561 15.8587C5.69349 15.6818 5.64872 15.6345 5.48744 15.777C5.36877 15.8818 5.29326 16.1092 5.20318 16.2473C5.16596 16.3038 4.7997 16.7532 5.09044 16.7532C5.21774 16.7532 5.23122 16.5559 5.34935 16.5307L5.34989 16.5296Z" fill="white"/>
<path d="M19.2989 40.1204L20.0967 38.5738V16.9645H23.6152V38.5501H26.1024V30.1192H29.3497V38.5415H32.1643V34.7037C32.1643 32.3781 32.0435 29.1429 29.4171 27.4721L30.9468 26.912C34.1126 28.0855 35.6974 31.1481 35.6974 35.1838V38.5749L36.4946 40.1204H19.2989ZM25.563 14.4013L25.6947 14.4034H27.02C29.6366 14.4034 30.7322 14.8625 31.9717 15.8146C33.7744 17.2236 34.0592 19.268 34.0592 20.2916C34.0592 21.5608 33.6692 22.901 32.7145 23.9934C32.0068 24.839 30.7764 26.0674 28.3636 26.3545C26.7141 26.5539 25.4956 26.4803 24.8877 26.4147V25.1239C25.1585 25.1605 25.5571 25.1965 26.1003 25.1965C27.7417 25.1965 28.9047 24.3778 29.6118 23.4956C30.4155 22.5231 30.5838 21.6071 30.6189 20.7883H26.103V19.5202H30.579C30.4646 18.6632 30.1361 18.0085 29.6026 17.365C28.5767 16.0957 27.1262 15.8845 26.1704 15.8845L19.7218 15.8818L18.9607 14.4007H25.5636L25.563 14.4013ZM7.72921 27.5001C7.72921 38.1055 16.3586 46.7058 26.9995 46.7058C37.6403 46.7058 46.2708 38.105 46.2708 27.5001C46.2708 16.8946 37.6403 8.29485 26.9995 8.29485C16.3586 8.29485 7.72921 16.8951 7.72921 27.5001Z" fill="white"/>
</svg>
