<svg width="134" height="34" viewBox="0 0 134 34" fill="none" xmlns="http://www.w3.org/2000/svg">
<path fill-rule="evenodd" clip-rule="evenodd" d="M17.355 32.1791C25.8161 32.1791 32.6735 25.3036 32.6735 16.8221C32.6735 8.33988 25.8161 1.46509 17.355 1.46509C8.89664 1.46509 2.04128 8.33988 2.04128 16.8221C2.04128 25.3029 8.89664 32.1791 17.355 32.1791ZM17.355 0.179443C26.5261 0.179443 33.9561 7.63118 33.9561 16.8221C33.9561 26.013 26.5247 33.4647 17.355 33.4647C8.19011 33.4647 0.758057 26.013 0.758057 16.8221C0.758057 7.63118 8.18942 0.179443 17.355 0.179443ZM17.355 28.6106C16.8094 28.6106 16.4806 28.2452 16.4606 27.7452C16.3411 27.9706 16.1871 28.1231 15.955 28.1696C15.7244 28.2128 15.4861 28.1853 15.2713 28.0905C15.0592 28.0053 14.8865 27.8436 14.7872 27.637C14.6836 27.4262 14.7181 27.2092 14.792 26.956C14.5351 27.3236 14.1014 27.4193 13.7194 27.2417C13.1959 26.9977 13.0053 26.5545 13.2201 26.049C13.8665 24.5179 14.5095 23.0145 15.1587 21.4855C15.2174 21.3468 15.2672 21.2032 15.3321 21.0652C15.3901 20.9425 15.4267 20.8524 15.4813 20.7782C15.5226 20.7225 15.5744 20.6756 15.6339 20.6402C14.6297 20.7504 14.1469 21.145 13.881 21.3197C13.8106 21.3669 13.8147 21.3738 13.5433 21.2892C13.4229 21.2542 13.2937 21.2681 13.1835 21.3281C13.0605 21.3934 12.9427 21.4683 12.8313 21.552C12.4714 21.8322 12.104 22.1026 11.7635 22.405C11.6047 22.5464 11.3768 22.7871 11.4078 23.0048C11.4327 23.2066 11.9265 23.674 12.0743 23.8134C12.4245 24.1434 11.8947 24.7648 11.1889 24.7058C11.3768 24.5089 11.421 24.3418 11.3968 24.1934C11.327 24.1927 11.1923 24.2059 11.0653 24.0921C10.9133 23.9555 10.981 23.5519 10.8401 23.4146C10.5915 23.1733 9.77859 23.1511 9.29307 23.1303C9.08864 23.122 8.87523 23.0672 8.89042 22.7503C8.5817 22.7711 8.51747 23 8.51747 23.2066C8.25157 23.0568 8.02435 22.3384 9.00507 22.1754C8.83931 22.025 8.56444 21.9702 8.39523 22.1616C8.23569 21.8981 8.63903 21.3801 9.3649 21.672C9.36282 21.6699 9.69157 21.2414 10.673 22.3377C10.7966 22.2448 10.9195 22.1533 11.0321 22.0492C11.412 21.7046 12.3692 20.7712 12.3692 20.7712C12.3692 20.2463 12.4479 19.2297 13.1434 18.6202C13.4397 18.3601 13.7236 18.2221 14.3507 18.1091C14.3507 18.1091 14.0475 17.6355 13.9998 17.4489C13.4528 17.994 12.354 18.1569 12.354 17.2374C11.4582 18.1299 10.626 17.6487 10.626 17.0884C10.595 17.3723 10.5308 17.6516 10.4347 17.9205C10.3221 18.2214 9.91189 19.3746 8.85313 19.3746C8.82895 19.7754 8.82688 21.0937 7.56162 21.3891C7.50706 21.4016 7.4373 21.4203 7.40277 21.4619C6.89169 22.0957 4.76726 22.7614 4.50758 22.5818C4.67195 22.4639 4.93233 22.3079 4.97376 21.5638C5.00001 21.0729 5.05388 18.5252 5.05388 14.9366C5.05388 13.6662 5.19132 9.55132 9.27373 8.97785C9.89324 8.89117 10.5024 8.93624 11.03 9.32665C11.7483 9.86199 12.1019 10.7621 11.6793 11.7821C11.6654 11.8189 11.6551 11.8549 11.6357 11.8875C11.4921 12.1302 11.5508 12.3397 11.738 12.5255C12.0784 12.8632 12.4756 13.0913 12.9535 13.1468C13.2546 13.1815 13.5046 13.049 13.7042 12.8424C14.1621 12.3722 14.4729 11.8196 14.5855 11.1705C14.7982 9.93757 14.4681 9.31902 14.4494 9.28019C14.1172 8.61587 13.4121 8.12907 12.5944 8.05973C12.22 7.36212 11.1454 7.63811 11.1454 7.63811C10.876 7.69636 10.7814 7.77264 10.7144 7.90509C10.7144 7.90509 10.2427 7.18946 10.6868 6.90237C11.1323 6.61459 12.1261 6.49601 12.1261 6.49601C12.1261 6.03002 12.8996 5.66735 14.2968 5.9163C15.9868 6.21725 16.3501 5.55848 16.3501 5.55848C16.4212 6.36426 15.8024 6.78033 15.6042 6.89266C16.2458 7.58611 17.1416 8.97161 17.355 10.9375C17.5691 8.97161 18.4649 7.58611 19.1058 6.89266C18.9076 6.78033 18.2894 6.36426 18.3599 5.55848C18.3599 5.55848 18.7232 6.21725 20.4132 5.9163C21.811 5.66735 22.5846 6.03002 22.5846 6.49601C22.5846 6.49601 23.5784 6.6139 24.0232 6.90237C24.468 7.18946 23.9956 7.90509 23.9956 7.90509C23.9286 7.77264 23.8339 7.69706 23.5646 7.63811C23.5646 7.63811 22.4899 7.36212 22.1156 8.05973C21.2979 8.12907 20.5934 8.61587 20.2612 9.28019C20.2426 9.31902 19.9318 9.93202 20.1245 11.1705C20.226 11.821 20.5478 12.3722 21.0064 12.8424C21.206 13.049 21.4554 13.1808 21.7572 13.1468C22.2344 13.0913 22.6322 12.8625 22.9727 12.5255C23.1592 12.3397 23.2179 12.1302 23.0749 11.8875C23.0549 11.8549 23.0445 11.8189 23.0314 11.7821C22.608 10.7628 22.9623 9.86129 23.6806 9.32734C24.2076 8.93693 24.8174 8.89047 25.4362 8.97785C29.5194 9.55132 29.6561 13.6662 29.6561 14.9366C29.6561 18.5252 29.7107 21.0729 29.7362 21.5638C29.7777 22.3079 30.038 22.4639 30.2031 22.5818C29.9427 22.7621 27.8183 22.0957 27.3072 21.4619C27.2727 21.4203 27.2036 21.4016 27.1491 21.3891C25.8838 21.0937 25.8817 19.7754 25.8575 19.3746C24.7988 19.3746 24.3878 18.2214 24.2753 17.9205C24.1792 17.6516 24.115 17.3723 24.084 17.0884C24.084 17.6487 23.2524 18.1299 22.3567 17.2374C22.3567 18.1569 21.2571 17.994 20.7108 17.4489C20.6625 17.6355 20.3586 18.1091 20.3586 18.1091C20.9871 18.2221 21.2703 18.3601 21.5672 18.6202C22.262 19.2304 22.3408 20.2463 22.3408 20.7712C22.3408 20.7712 23.2987 21.7046 23.6786 22.0492C23.7904 22.1533 23.9134 22.2448 24.0377 22.3377C25.0184 21.2414 25.3472 21.6699 25.3451 21.672C26.0709 21.3801 26.4743 21.8988 26.3154 22.1609C26.1462 21.9702 25.8707 22.025 25.7049 22.1748C26.6856 22.3384 26.4584 23.0568 26.1932 23.2066C26.1932 23 26.1283 22.7711 25.8202 22.7503C25.8354 23.0672 25.6213 23.122 25.4169 23.1303C24.9314 23.1511 24.1185 23.1733 23.8699 23.4146C23.729 23.5519 23.7973 23.9555 23.6447 24.0921C23.5183 24.2059 23.3836 24.1927 23.3132 24.1934C23.2897 24.3418 23.3339 24.5089 23.5218 24.7065C22.8152 24.7648 22.2855 24.1434 22.6364 23.8134C22.7828 23.6747 23.2773 23.2066 23.3021 23.0048C23.3339 22.7871 23.1053 22.5464 22.9465 22.405C22.606 22.1026 22.2392 21.8322 21.8787 21.552C21.7673 21.4683 21.6495 21.3934 21.5265 21.3281C21.4165 21.2683 21.2875 21.2544 21.1674 21.2892C20.8959 21.3738 20.9001 21.3669 20.8289 21.3204C20.563 21.145 20.081 20.7504 19.0761 20.6409C19.1445 20.6825 19.1907 20.7268 19.2287 20.7782C19.284 20.8524 19.3206 20.9425 19.3779 21.0652C19.4428 21.2039 19.4932 21.3468 19.5519 21.4855C20.2011 23.0145 20.8434 24.5179 21.4899 26.0483C21.7054 26.5545 21.5141 26.9983 20.9912 27.2411C20.6086 27.4193 20.1749 27.3243 19.9187 26.9567C19.9926 27.2092 20.0271 27.4262 19.9228 27.637C19.8238 27.8435 19.6513 28.0053 19.4394 28.0905C19.2245 28.1853 18.9863 28.2128 18.7556 28.1696C18.5229 28.1231 18.3689 27.9706 18.2494 27.7452C18.2293 28.2452 17.9006 28.6113 17.355 28.6113V28.6106ZM43.8592 21.1575C44.3229 21.1769 44.7869 21.188 45.2509 21.1908C47.1861 21.1908 48.3118 20.2851 48.3118 18.5938C48.3118 16.7701 46.972 16.1786 43.8592 16.1786V21.1575ZM45.4174 10.3127C46.3318 10.3127 48.1979 10.2309 49.2636 10.165C49.2362 10.3611 49.22 10.5586 49.2152 10.7565C49.2152 10.8716 49.2497 11.1351 49.2636 11.3154C48.3119 11.1837 46.7399 11.0866 46.251 11.0866C45.9084 11.0866 44.5796 11.1178 43.8592 11.1837V15.309H44.6936C46.3994 15.309 49.9894 15.637 49.9894 18.6098C49.9894 21.0243 47.9727 22.1255 45.32 22.1103C45.023 22.1103 43.911 22.0617 43.2018 22.0617C42.893 22.0617 42.5159 22.077 42.2528 22.1103C42.353 20.3025 42.384 17.804 42.384 15.7341C42.384 13.8784 42.3702 11.0693 42.2528 10.1657C43.3026 10.2149 45.0361 10.3127 45.4174 10.3127ZM56.257 17.8713L55.1734 18.0342C53.9938 18.2159 52.6816 18.6257 52.6816 19.8767C52.6816 20.8281 53.2078 21.3385 54.2708 21.3385C54.9282 21.3385 55.583 21.1075 56.257 20.4023V17.8713ZM51.8473 14.766C52.4875 13.9783 53.6651 13.6343 54.6513 13.6343C56.371 13.6343 57.5658 14.4866 57.5658 16.5398V20.6145C57.5658 21.4529 57.7454 21.6491 58.0886 21.6491C58.2061 21.6491 58.3856 21.6158 58.483 21.5826L58.5804 21.9778C58.1985 22.1716 57.7788 22.2786 57.351 22.2913C56.8109 22.2913 56.4684 22.0444 56.3365 21.5673L56.2398 21.2081C55.3537 21.914 54.3875 22.2913 53.5849 22.2913C52.0931 22.2913 51.1242 21.5014 51.1242 20.1215C51.1242 18.6431 52.2244 17.9524 53.7307 17.6743L55.3993 17.3623C55.9601 17.2631 56.257 17.0988 56.257 16.6889C56.257 14.8971 55.5022 14.438 54.2569 14.438C53.29 14.438 52.5669 14.7168 52.0448 15.7861H51.8473V14.766ZM60.8271 13.8458C61.0066 13.8458 61.3499 13.8132 61.5951 13.7973C61.4638 15.0441 61.4473 17.114 61.4473 17.1972C62.1358 17.2305 63.1324 17.2631 63.6615 17.2631C64.2016 17.2631 65.2341 17.2305 65.7251 17.1972C65.7251 17.0981 65.7079 15.0295 65.5801 13.7973C65.8543 13.8132 66.2169 13.8458 66.4109 13.8458C66.594 13.8458 66.9372 13.8132 67.1831 13.7973C67.0519 15.0295 67.0339 17.0981 67.0339 17.9524C67.0339 18.6431 67.0512 20.8607 67.1831 22.1103C66.9328 22.0777 66.6806 22.0615 66.4282 22.0617C66.1513 22.0617 65.8225 22.0777 65.5794 22.1103C65.7079 20.8607 65.7251 18.6431 65.7251 18.1188C65.0055 18.0668 64.022 18.0023 63.6449 18.0023C63.1987 18.0023 62.1048 18.0342 61.4473 18.0841C61.4473 18.6431 61.4645 20.8607 61.5951 22.1103C61.345 22.0778 61.093 22.0616 60.8409 22.0617C60.5639 22.0617 60.2352 22.0777 59.9893 22.1103C60.1178 20.8607 60.135 18.6431 60.135 17.9524C60.135 17.114 60.1178 15.0295 59.9893 13.7973C60.2663 13.8132 60.6295 13.8458 60.8271 13.8458ZM70.2461 13.8458C70.4236 13.8458 70.7696 13.8132 71.012 13.7973C70.8836 15.0295 70.8698 17.114 70.8698 17.4122H71.1322C71.673 17.4122 74.4418 14.2556 74.7049 13.7973C74.9328 13.8132 75.3078 13.8458 75.5054 13.8458C75.6711 13.8458 76.0648 13.8132 76.3079 13.7973L72.3926 17.313C72.8871 17.9038 75.4874 20.8447 76.6677 22.1103C76.3419 22.0827 76.0153 22.0665 75.6884 22.0617C75.3907 22.0617 74.9473 22.0777 74.6041 22.1103C73.9991 21.1575 72.1468 18.9724 71.1322 17.8539H70.8698C70.8698 18.4621 70.8836 20.8607 71.012 22.1103C70.7629 22.0776 70.5119 22.0614 70.2606 22.0617C69.9864 22.0617 69.6577 22.0777 69.409 22.1103C69.5437 20.8607 69.561 18.6431 69.561 17.9524C69.561 17.114 69.5437 15.0295 69.409 13.7973C69.6894 13.8132 70.0493 13.8458 70.2461 13.8458ZM84.5459 15.8173C86.841 15.8173 88.187 14.8978 88.187 13.1551C88.187 11.529 86.9066 11.0866 85.3174 11.0866C85.0404 11.0866 84.0887 11.1019 83.8574 11.1351V15.75C84.0577 15.7861 84.3829 15.8173 84.5459 15.8173ZM83.9085 10.2156C84.4803 10.2156 85.2207 10.165 85.6434 10.165C88.6753 10.165 89.8563 11.0866 89.8563 13.1551C89.8563 15.8346 87.6096 16.6882 84.9431 16.6882C84.5806 16.6781 84.2185 16.6561 83.8574 16.6224V19.4641C83.8574 20.2851 83.8919 21.2878 83.992 22.1103C83.4137 22.0463 82.83 22.0463 82.2516 22.1103C82.3511 20.3018 82.3856 17.8047 82.3856 15.7348C82.3856 13.8791 82.3683 11.0693 82.2509 10.165C82.7938 10.181 83.5314 10.2156 83.9085 10.2156ZM91.6541 18.0841C91.6541 19.9405 92.4255 21.6484 94.1611 21.6484C95.8325 21.6484 96.8326 20.0383 96.8326 17.8373C96.8326 16.0634 96.144 14.273 94.2923 14.273C92.5229 14.273 91.6541 16.1293 91.6541 18.0841ZM98.3906 17.9038C98.3906 20.4176 96.7642 22.2906 94.195 22.2906C91.6713 22.2906 90.0967 20.4349 90.0967 18.1341C90.0967 15.4074 91.8343 13.6336 94.3407 13.6336C96.8326 13.6336 98.3906 15.44 98.3906 17.9038ZM106.421 15.587H106.224C105.649 14.6509 104.85 14.273 103.946 14.273C102.028 14.273 101.111 16.13 101.111 17.9364C101.111 20.023 102.258 21.6491 104.289 21.6491C104.964 21.6491 105.569 21.552 106.518 20.5153L106.667 20.6963L106.47 21.5014C105.68 22.0284 104.801 22.2913 103.783 22.2913C101.225 22.2913 99.5537 20.5001 99.5537 17.9697C99.5537 15.3242 101.356 13.6343 103.995 13.6343C104.85 13.6343 105.781 13.7973 106.83 14.3562L106.421 15.587ZM114.692 15.587H114.497C113.926 14.6509 113.123 14.273 112.223 14.273C110.302 14.273 109.384 16.13 109.384 17.9364C109.384 20.023 110.537 21.6491 112.565 21.6491C113.234 21.6491 113.843 21.552 114.792 20.5153L114.937 20.6963L114.744 21.5014C113.957 22.0284 113.072 22.2913 112.057 22.2913C109.502 22.2913 107.83 20.5001 107.83 17.9697C107.83 15.3242 109.633 13.6343 112.271 13.6343C113.123 13.6343 114.057 13.7973 115.106 14.3562L114.692 15.587ZM117.121 22.0617C117.021 22.0617 116.727 22.0929 116.595 22.1103C116.727 20.8607 116.744 18.6431 116.744 17.9524C116.744 17.1133 116.727 15.0295 116.595 13.7973C116.875 13.8132 117.232 13.8458 117.43 13.8458C117.609 13.8458 117.953 13.8132 118.202 13.7973C118.071 15.0295 118.056 17.0981 118.056 17.9524C118.056 18.6431 118.07 19.6111 118.087 20.0715C118.987 18.9724 122.2 14.8818 122.971 13.7973C123.148 13.8285 123.263 13.8458 123.46 13.8458C123.556 13.8458 123.9 13.8132 124.086 13.7973C123.951 15.0295 123.934 17.0981 123.934 17.9524C123.934 18.6431 123.951 20.8607 124.086 22.1096C123.836 22.0774 123.584 22.0611 123.331 22.061C123.051 22.061 122.726 22.077 122.477 22.1096C122.608 20.8614 122.625 18.6424 122.625 17.9524C122.626 17.202 122.615 16.4516 122.594 15.7015C121.476 16.8359 118.527 20.713 117.595 22.1096C117.44 22.0758 117.28 22.0595 117.121 22.061V22.0617ZM126.401 22.0617C126.226 22.0708 126.051 22.087 125.878 22.1103C126.006 20.8607 126.023 18.6431 126.023 17.9524C126.023 17.1133 126.006 15.0295 125.878 13.7973C126.155 13.8132 126.512 13.8458 126.709 13.8458C126.889 13.8458 127.236 13.8132 127.481 13.7973C127.35 15.0295 127.335 17.0981 127.335 17.9524C127.335 18.6431 127.349 19.6111 127.367 20.0715C128.267 18.9724 131.476 14.8818 132.248 13.7973C132.428 13.8285 132.542 13.8458 132.74 13.8458C132.837 13.8458 133.183 13.8132 133.363 13.7973C133.234 15.0295 133.217 17.0981 133.217 17.9524C133.217 18.6431 133.234 20.8607 133.363 22.1096C133.113 22.0771 132.86 22.0609 132.608 22.061C132.331 22.061 132.002 22.077 131.759 22.1096C131.89 20.8614 131.905 18.6424 131.905 17.9524C131.905 17.0988 131.891 16.0482 131.874 15.7015C130.759 16.8359 127.807 20.713 126.872 22.1096C126.718 22.0757 126.56 22.0594 126.401 22.061V22.0617Z" fill="white"/>
</svg>
