<svg width="131" height="64" viewBox="0 0 131 64" fill="none" xmlns="http://www.w3.org/2000/svg">
<path d="M116.84 1.292H93.4936V36.752H101.9V7.14201H115.346C119.27 7.14201 121.772 8.25805 121.772 11.9121C121.772 15.2421 119.198 16.682 114.482 16.682H106.094L108.326 22.532H117.092C123.932 22.532 130.556 19.022 130.556 11.606C130.556 3.86597 124.112 1.292 116.84 1.292ZM31.7177 18.158C34.9577 16.844 37.9096 14.108 37.9096 10.202C37.9096 3.72203 32.6897 1.292 23.5817 1.292H0.163708V36.752H22.5736C32.1136 36.752 39.0436 32.9 39.0436 26.564C39.0436 21.596 36.6137 19.184 31.7177 18.158ZM22.5736 30.92H8.58758V7.16002H23.0777C27.2357 7.16002 29.1256 8.52804 29.1256 11.228C29.1256 13.964 26.9656 15.476 23.2756 15.476H12.8358L15.0678 21.344H23.1317C28.1717 21.344 30.2596 22.604 30.2596 26.276C30.2596 28.922 28.3156 30.92 22.5736 30.92ZM67.4297 22.28H76.9695V29.786C73.6755 30.686 69.8956 31.478 66.4936 31.478C58.2496 31.478 52.1116 27.158 52.1116 18.932C52.1116 11.318 59.0957 6.35 67.2317 6.35C75.3677 6.35 80.0116 8.52803 84.5116 10.544L84.7276 2.62399C77.8876 1.00399 72.7216 0.5 66.7276 0.5C53.5696 0.5 43.3276 8.00602 43.3276 19.31C43.3276 31.154 52.6516 37.346 65.2875 37.346C72.2733 37.2531 79.1473 35.5793 85.3936 32.45V16.43H65.1797L67.4297 22.28ZM0.163708 63.23V49.514H1.87362V61.718H8.24569V63.23H0.145691H0.163708ZM13.7536 63.23V49.514H15.4637V63.23H13.7536ZM25.1477 63.23V51.044H20.8096V49.514H31.2137V51.044H26.8576V63.23H25.1477ZM36.5776 63.23V49.514H38.2876V63.23H36.5776ZM44.0297 56.39C43.9973 55.453 44.1572 54.5193 44.4999 53.6466C44.8425 52.7739 45.3607 51.9807 46.0219 51.3161C46.6832 50.6514 47.4737 50.1294 48.3447 49.7823C49.2156 49.4352 50.1486 49.2704 51.0857 49.298C53.4977 49.298 55.2257 50.378 56.4137 51.872L55.0637 52.7C54.587 52.1088 53.9837 51.6321 53.2984 51.305C52.613 50.9779 51.8629 50.8088 51.1035 50.81C48.0795 50.81 45.7936 53.114 45.7936 56.39C45.7936 59.63 48.0797 61.9701 51.0857 61.9701C52.4587 61.965 53.778 61.4372 54.7756 60.494V57.7041H50.0596V56.192H56.4677V61.142C55.7905 61.8959 54.9598 62.4963 54.0316 62.903C53.1034 63.3097 52.0991 63.5132 51.0857 63.5C50.1477 63.5251 49.2143 63.3579 48.3433 63.0088C47.4723 62.6597 46.682 62.136 46.021 61.47C45.3601 60.8039 44.8424 60.0097 44.4999 59.136C44.1574 58.2624 43.9974 57.3278 44.0297 56.39ZM72.0916 63.23L70.8677 60.206H64.0276L62.8216 63.23H60.8596L66.3857 49.514H68.5096L74.0357 63.23H72.0916ZM67.4477 51.296L64.5317 58.676H70.3456L67.4477 51.296ZM80.9296 63.23V51.044H76.6096V49.514H87.0136V51.044H82.6396V63.23H80.9296ZM92.3776 63.23V49.514H94.0695V63.23H92.3596H92.3776ZM99.8116 56.39C99.8116 52.34 102.566 49.298 106.616 49.298C110.684 49.298 113.438 52.34 113.438 56.39C113.438 60.44 110.684 63.482 106.616 63.482C102.566 63.482 99.8116 60.44 99.8116 56.39ZM111.674 56.39C111.674 53.168 109.694 50.81 106.634 50.81C103.538 50.81 101.594 53.168 101.594 56.39C101.594 59.576 103.538 61.9701 106.634 61.9701C109.694 61.9701 111.674 59.576 111.674 56.39ZM128.918 63.23L120.908 52.3041V63.23H119.216V49.514H120.962L128.864 60.224V49.514H130.556V63.23H128.936H128.918Z" fill="white"/>
</svg>
