<svg width="136" height="11" viewBox="0 0 136 11" fill="none" xmlns="http://www.w3.org/2000/svg">
<g clip-path="url(#clip0)">
<path d="M71.0055 0.622925V1.99557L72.6175 3.90248C71.566 4.40852 70.7503 5.2905 70.3373 6.36831C70.2334 6.66997 70.1826 6.98685 70.1869 7.30533C70.185 7.95468 70.3926 8.58786 70.7799 9.1136C71.3642 9.80431 72.1574 10.2933 73.0439 10.5091C73.9304 10.725 74.8639 10.6565 75.708 10.3136C76.2796 10.0661 76.8005 9.71791 77.2449 9.28621L78.1637 10.363H80.586L73.6533 2.26681H78.5897V0.622925H70.9888H71.0055ZM72.2751 8.2259C72.0747 7.93859 71.9724 7.59608 71.9827 7.24779C71.9806 7.07177 72.0088 6.89667 72.0663 6.72997C72.2132 6.37961 72.429 6.06129 72.7014 5.79328C72.9738 5.52528 73.2972 5.31287 73.6533 5.16827L76.1591 8.08617C75.845 8.45542 75.4393 8.73855 74.9813 8.90812C74.5138 9.10864 73.9921 9.15209 73.4969 9.03176C73.0018 8.91142 72.5606 8.634 72.2417 8.24234L72.2751 8.2259Z" fill="white"/>
<path d="M63.0262 2.20106H55.9515V4.41208H60.7209V6.10529H55.9515V8.57112H63.1432V10.2561H53.8383V0.622925H63.0262V2.20106Z" fill="white"/>
<path d="M135.331 2.20106H128.248V4.41208H133.017V6.10529H128.248V8.57112H135.44V10.2561H126.135V0.622925H135.331V2.20106Z" fill="white"/>
<path d="M6.67926 0.732788L4.44909 7.20148L2.16046 0.749227H0.147461L3.62218 10.2262H5.20919L7.56465 3.22328L10.0036 10.2262H11.5071L14.8482 0.749227H12.9438L10.7637 7.19326L8.50015 0.732788H6.67926Z" fill="white"/>
<path d="M27.1232 4.36277V0.622925H29.2615V10.2561H27.1232V6.16282H21.1344V10.2561H18.9961V0.622925H21.1344V4.36277H27.1232Z" fill="white"/>
<path d="M34.1953 10.2561V0.622925H36.3002V10.2561H34.1953Z" fill="white"/>
<path d="M46.1865 10.2561H44.065V2.33257H40.1726V0.622925H50.0705V2.33257H46.1865V10.2561Z" fill="white"/>
<path d="M87.3326 1.96854C86.8777 2.43094 86.5215 2.9782 86.2848 3.57813C86.0481 4.17805 85.9357 4.81851 85.9544 5.4618C85.9544 8.88109 88.6774 10.3935 91.3836 10.3935C92.779 10.3334 94.1322 9.90472 95.301 9.15233L94.4658 7.72215C93.5657 8.35065 92.4873 8.68424 91.3836 8.6756C90.9264 8.71271 90.4664 8.6546 90.0335 8.50508C89.6006 8.35555 89.2046 8.11795 88.8713 7.80777C88.5379 7.49759 88.2748 7.12178 88.0989 6.70482C87.923 6.28787 87.8383 5.83912 87.8504 5.38783C87.8499 4.94261 87.9413 4.50193 88.1191 4.0925C88.2968 3.68308 88.5572 3.31345 88.8844 3.00602C89.2117 2.69859 89.599 2.45976 90.0229 2.30403C90.4467 2.1483 90.8983 2.07891 91.3502 2.10005C92.4324 2.14389 93.4911 2.42469 94.4491 2.922L95.2342 1.36853C94.0413 0.77097 92.7222 0.458406 91.3836 0.456168C90.6418 0.434007 89.9028 0.556196 89.209 0.815726C88.5153 1.07526 87.8805 1.46702 87.3409 1.96854" fill="white"/>
<path d="M103.872 3.11341L105.292 6.52448H102.427L103.872 3.11341ZM100.69 10.2561L101.659 8.19302H106.085L107.105 10.2561H109.761L104.557 0.622925H102.987L98.1254 10.2561H100.631" fill="white"/>
<path d="M112.904 9.33508L113.589 7.78161C114.668 8.40691 115.888 8.75725 117.139 8.80082C117.974 8.80082 120.137 8.62821 120.154 7.51037C120.154 5.27468 112.587 7.99532 112.637 3.51572C112.637 1.98691 114.115 0.49097 117.197 0.523848C118.705 0.52364 120.193 0.86982 121.541 1.53484L120.764 3.00612C119.673 2.44645 118.468 2.13732 117.239 2.10198C116.136 2.10198 114.775 2.38144 114.733 3.18695C114.733 5.51305 122.292 2.88283 122.251 7.29666C122.251 9.82003 119.152 10.3954 117.13 10.3872C114.24 10.3214 112.904 9.33508 112.904 9.33508Z" fill="white"/>
</g>
<defs>
<clipPath id="clip0">
<rect width="135.288" height="10.2003" fill="white" transform="translate(0.147461 0.453491)"/>
</clipPath>
</defs>
</svg>
