<svg width="201" height="198" viewBox="0 0 201 198" fill="none" xmlns="http://www.w3.org/2000/svg">
<path fill-rule="evenodd" clip-rule="evenodd" d="M92.5583 11.0317C54.7459 14.5888 22.4256 42.9574 15.5081 82.1888C7.20842 129.258 38.6192 174.141 85.666 182.436C132.713 190.732 177.58 159.3 185.88 112.23C187.917 100.676 187.561 89.2542 185.17 78.4728L92.5583 11.0317Z" fill="#FFD940"/>
<mask id="mask0" mask-type="alpha" maskUnits="userSpaceOnUse" x="0" y="0" width="201" height="198">
<path fill-rule="evenodd" clip-rule="evenodd" d="M92.5583 11.0327C54.7459 14.5898 22.4256 42.9584 15.5081 82.1897C7.20842 129.259 38.6192 174.142 85.666 182.437C132.713 190.733 177.58 159.301 185.88 112.231C187.917 100.677 187.561 89.2552 185.17 78.4738L92.5583 11.0327Z" fill="#FFD940"/>
</mask>
<g mask="url(#mask0)">
<path d="M27.1744 82.1712L26.3255 88.7633L32.4619 89.5421L32.6032 88.4449L27.3697 87.7807L27.936 83.383L33.1695 84.0472L33.3108 82.9499L27.1744 82.1712Z" fill="#070708"/>
<path d="M29.0726 74.2149L28.0036 78.1113L33.9723 79.7263L34.2651 78.659L31.997 78.0453L32.7732 75.2162C33.1311 73.9117 32.817 72.8531 31.5465 72.5094C30.2846 72.1679 29.4212 72.9443 29.0726 74.2149ZM31.9151 75.0386L31.1529 77.8169L29.1747 77.2817L29.9369 74.5033C30.1321 73.7918 30.5971 73.399 31.2537 73.5766C31.9188 73.7566 32.1103 74.3271 31.9151 75.0386Z" fill="#070708"/>
<path d="M33.6059 69.9942C35.3343 70.7347 37.0896 69.9952 38.0804 67.7139C39.0713 65.4325 38.4084 63.6569 36.68 62.9164C34.9516 62.1758 33.1963 62.9154 32.2055 65.1967C31.2146 67.4781 31.8775 69.2537 33.6059 69.9942ZM34.0471 68.9785C32.8542 68.4674 32.3235 67.2074 33.0413 65.5548C33.759 63.9023 35.046 63.421 36.2388 63.9321C37.4317 64.4432 37.9624 65.7032 37.2446 67.3558C36.5269 69.0083 35.2399 69.4896 34.0471 68.9785Z" fill="#070708"/>
<path d="M37.0533 55.0967C37.7107 54.045 37.5711 53.3698 36.9591 52.951L36.5721 53.5701C36.8341 53.7833 36.9531 54.1254 36.5428 54.7818C36.1371 55.4307 35.771 55.4839 35.4624 55.3452L35.0754 55.9643C35.7247 56.3234 36.3958 56.1483 37.0533 55.0967ZM38.4045 53.8838L40.8741 60.2333L36.2269 57.367L35.6534 58.2844L40.9087 61.5258L41.8132 60.0789L39.339 53.7368L43.9861 56.6032L44.5643 55.6783L39.309 52.4369L38.4045 53.8838Z" fill="#070708"/>
<path d="M49.9372 47.564L45.8999 44.1905L42.4122 48.3092C44.4571 50.1899 45.6076 51.4495 45.8066 52.4418L45.397 52.9256L47.1891 54.423L47.8491 53.6436L46.7535 52.7282L50.4574 48.3543L51.5529 49.2697L52.2186 48.4836L50.4265 46.9862L49.9372 47.564ZM49.2203 48.4105L46.5007 51.6221C46.3532 51.2236 46.0873 50.7604 45.7263 50.2867C45.1584 49.5254 44.37 48.7518 43.746 48.1387L45.8795 45.6191L49.2203 48.4105Z" fill="#070708"/>
<path d="M52.9707 45.7509L57.3934 41.7603L56.8052 41.117L53.2069 44.3638L51.9592 42.9992L54.7004 40.5257L54.1419 39.9149L51.4007 42.3884L50.2242 41.1018L53.6917 37.9731L53.1035 37.3298L48.8117 41.2022L52.9707 45.7509Z" fill="#070708"/>
<path d="M60.8953 31.6506L62.3542 33.7649L58.6218 36.3066L57.1629 34.1923L56.2443 34.8178L59.7417 39.8863L60.6602 39.2608L59.1414 37.0597L62.8738 34.5179L64.3926 36.7191L65.3112 36.0936L61.8138 31.0251L60.8953 31.6506Z" fill="#070708"/>
<path d="M66.3864 31.8701C67.2134 33.5498 69.0303 34.1231 71.2772 33.0313C73.524 31.9395 74.1841 30.1627 73.3572 28.483C72.5303 26.8033 70.7133 26.23 68.4664 27.3218C66.2196 28.4136 65.5595 30.1904 66.3864 31.8701ZM67.3868 31.384C66.8161 30.2248 67.2388 28.9249 68.8663 28.1341C70.4939 27.3432 71.7861 27.8098 72.3568 28.9691C72.9275 30.1283 72.5049 31.4282 70.8773 32.219C69.2497 33.0099 67.9575 32.5433 67.3868 31.384Z" fill="#070708"/>
<path d="M87.0123 25.2453C87.0202 26.0033 86.3658 26.7715 85.0365 27.1007C83.3042 27.5296 82.1731 26.7963 81.8591 25.5441C81.5451 24.2919 82.1806 23.1213 83.8357 22.7115C85.0192 22.4184 86.0693 22.647 86.4395 23.3244L87.46 22.9993C86.9166 21.8491 85.4595 21.3776 83.6157 21.8341C81.2831 22.4116 80.3236 23.9972 80.7786 25.8117C81.2357 27.6346 82.8468 28.5747 85.2565 27.9781C87.2547 27.4833 88.1687 26.3704 88.0649 25.048L87.0123 25.2453Z" fill="#070708"/>
<path d="M90.6192 23.5581C90.808 25.4186 92.3118 26.5825 94.8003 26.3329C97.2887 26.0833 98.5284 24.6442 98.3396 22.7837C98.1508 20.9232 96.6469 19.7594 94.1585 20.009C91.6701 20.2586 90.4304 21.6976 90.6192 23.5581ZM91.7271 23.447C91.5968 22.163 92.4472 21.0894 94.2498 20.9086C96.0524 20.7278 97.1013 21.6108 97.2316 22.8948C97.3619 24.1788 96.5116 25.2524 94.709 25.4332C92.9064 25.614 91.8575 24.731 91.7271 23.447Z" fill="#070708"/>
<path d="M105.911 22.2933L102.891 22.1714L102.957 20.5661L107.646 20.7554L107.681 19.8958L101.88 19.6616L101.628 25.8019L105.76 25.9687C107.111 26.0232 108.08 25.4737 108.132 24.2193C108.182 22.9912 107.262 22.3478 105.911 22.2933ZM105.707 25.1055L102.776 24.9871L102.856 23.0222L105.788 23.1406C106.6 23.1734 107.045 23.5428 107.02 24.1656C106.994 24.7972 106.52 25.1383 105.707 25.1055Z" fill="#070708"/>
<path d="M110.935 26.3974L116.82 27.4148L116.971 26.5586L112.182 25.7308L112.5 23.9145L116.148 24.5451L116.291 23.7321L112.643 23.1014L112.943 21.3889L117.558 22.1866L117.708 21.3304L111.996 20.343L110.935 26.3974Z" fill="#070708"/>
<path d="M125.916 27.8227C125.523 28.4729 124.561 28.7874 123.255 28.3771C121.553 27.8422 120.975 26.6294 121.367 25.3989C121.759 24.1685 122.918 23.5011 124.544 24.0121C125.706 24.3775 126.481 25.1181 126.44 25.8878L127.48 26.1412C127.623 24.8785 126.63 23.7192 124.818 23.15C122.527 22.4298 120.874 23.2825 120.306 25.0653C119.735 26.8566 120.613 28.4952 122.98 29.2392C124.944 29.8561 126.309 29.3827 126.917 28.2017L125.916 27.8227Z" fill="#070708"/>
<path d="M128.89 31.2321L134.293 33.7622L134.666 32.976L130.27 30.9175L131.061 29.2498L134.411 30.818L134.765 30.0716L131.416 28.5033L132.162 26.931L136.399 28.9146L136.772 28.1285L131.528 25.6732L128.89 31.2321Z" fill="#070708"/>
<path d="M142.724 37.8551L145.592 33.4554L141.045 30.531C139.42 32.7809 138.305 34.0718 137.339 34.3916L136.805 34.0481L135.532 36.0011L136.392 36.5545L137.17 35.3606L141.999 38.4663L141.221 39.6602L142.089 40.2184L143.362 38.2654L142.724 37.8551ZM141.79 37.254L138.244 34.9736C138.624 34.7786 139.053 34.4587 139.481 34.0439C140.171 33.3893 140.846 32.5158 141.381 31.8244L144.163 33.6134L141.79 37.254Z" fill="#070708"/>
<path d="M146.658 38.013C145.419 39.4211 145.591 41.3073 147.474 42.9421C149.357 44.5768 151.262 44.493 152.501 43.0848C153.739 41.6767 153.568 39.7906 151.685 38.1558C149.802 36.521 147.897 36.6049 146.658 38.013ZM147.497 38.7409C148.352 37.7691 149.722 37.6525 151.086 38.8367C152.45 40.0209 152.517 41.3852 151.662 42.357C150.807 43.3288 149.437 43.4453 148.073 42.2612C146.709 41.077 146.642 39.7127 147.497 38.7409Z" fill="#070708"/>
<path d="M158.051 49.0906C158.737 49.6969 159.534 49.9318 160.171 49.3888C160.902 48.7657 160.817 47.6821 159.937 46.6626L157.227 43.5242L152.531 47.5252L155.235 50.6571C156.282 51.8698 157.315 52.1227 158.107 51.4482C158.791 50.8652 158.735 50.0454 158.051 49.0906ZM157.295 44.9239L159.245 47.1828C159.676 47.6826 159.775 48.2691 159.339 48.6406C158.91 49.0064 158.329 48.8191 157.903 48.326L155.953 46.0671L157.295 44.9239ZM155.823 50.0169L153.913 47.8047L155.315 46.6101L157.283 48.889C157.812 49.502 158.006 50.0771 157.489 50.5172C156.973 50.9573 156.421 50.7099 155.823 50.0169Z" fill="#070708"/>
<path d="M161.879 59.9661L162.496 60.9283L166.064 55.0553L165.157 53.6416L158.296 54.3852L158.895 55.3178L160.544 55.1269L162.749 58.5613L161.879 59.9661ZM161.483 55.0216L165.201 54.5923L163.241 57.7603L161.483 55.0216Z" fill="#070708"/>
<path d="M171.788 66.0034L169.436 67.0583L167.575 62.9616L169.927 61.9067L169.469 60.8985L163.83 63.4274L164.288 64.4355L166.737 63.3373L168.598 67.434L166.149 68.5322L166.607 69.5404L172.246 67.0116L171.788 66.0034Z" fill="#070708"/>
<path d="M175.118 75.8518L168.725 73.4011L173.985 71.9095L173.687 70.8711L167.738 72.558L168.208 74.1957L174.599 76.6379L169.338 78.1296L169.639 79.1764L175.588 77.4895L175.118 75.8518Z" fill="#070708"/>
<path d="M177.425 85.0349C177.586 86.2624 178.124 86.6973 178.865 86.6368L178.77 85.9143C178.431 85.9139 178.121 85.7238 178.021 84.9578C177.921 84.2004 178.171 83.929 178.498 83.8424L178.404 83.1198C177.672 83.25 177.264 83.8075 177.425 85.0349ZM177.151 86.8233L171.194 83.4603L176.618 82.7579L176.478 81.6871L170.343 82.4815L170.565 84.1703L176.521 87.5246L171.096 88.227L171.238 89.3065L177.372 88.5121L177.151 86.8233Z" fill="#070708"/>
<path d="M176.553 111.152L177.402 104.56L171.266 103.781L171.124 104.878L176.358 105.542L175.791 109.94L170.558 109.276L170.417 110.373L176.553 111.152Z" fill="#070708"/>
<path d="M174.655 119.108L175.724 115.212L169.755 113.597L169.462 114.664L171.73 115.278L170.954 118.107C170.596 119.411 170.91 120.47 172.181 120.814C173.443 121.155 174.306 120.379 174.655 119.108ZM171.812 118.285L172.575 115.506L174.553 116.041L173.791 118.82C173.595 119.531 173.13 119.924 172.474 119.746C171.809 119.567 171.617 118.996 171.812 118.285Z" fill="#070708"/>
<path d="M170.122 123.329C168.393 122.588 166.638 123.328 165.647 125.609C164.656 127.891 165.319 129.666 167.047 130.407C168.776 131.147 170.531 130.408 171.522 128.126C172.513 125.845 171.85 124.069 170.122 123.329ZM169.68 124.345C170.873 124.856 171.404 126.116 170.686 127.768C169.968 129.421 168.681 129.902 167.489 129.391C166.296 128.88 165.765 127.62 166.483 125.967C167.201 124.315 168.488 123.834 169.68 124.345Z" fill="#070708"/>
<path d="M166.674 138.226C166.017 139.278 166.156 139.953 166.768 140.372L167.155 139.753C166.893 139.54 166.774 139.198 167.185 138.541C167.59 137.892 167.956 137.839 168.265 137.978L168.652 137.359C168.003 137 167.332 137.175 166.674 138.226ZM165.323 139.439L162.853 133.09L167.501 135.956L168.074 135.039L162.819 131.797L161.914 133.244L164.388 139.586L159.741 136.72L159.163 137.645L164.418 140.886L165.323 139.439Z" fill="#070708"/>
<path d="M153.79 145.759L157.828 149.133L161.315 145.014C159.27 143.133 158.12 141.874 157.921 140.881L158.33 140.398L156.538 138.9L155.878 139.68L156.974 140.595L153.27 144.969L152.175 144.053L151.509 144.84L153.301 146.337L153.79 145.759ZM154.507 144.913L157.227 141.701C157.374 142.1 157.64 142.563 158.001 143.036C158.569 143.798 159.357 144.571 159.981 145.184L157.848 147.704L154.507 144.913Z" fill="#070708"/>
<path d="M150.757 147.572L146.334 151.563L146.922 152.206L150.521 148.959L151.768 150.324L149.027 152.797L149.586 153.408L152.327 150.935L153.503 152.221L150.036 155.35L150.624 155.993L154.916 152.121L150.757 147.572Z" fill="#070708"/>
<path d="M142.832 161.673L141.373 159.558L145.106 157.016L146.565 159.131L147.483 158.505L143.986 153.437L143.067 154.062L144.586 156.263L140.854 158.805L139.335 156.604L138.416 157.23L141.914 162.298L142.832 161.673Z" fill="#070708"/>
<path d="M137.341 161.453C136.514 159.773 134.697 159.2 132.45 160.292C130.203 161.384 129.543 163.16 130.37 164.84C131.197 166.52 133.014 167.093 135.261 166.001C137.508 164.91 138.168 163.133 137.341 161.453ZM136.341 161.939C136.911 163.098 136.489 164.398 134.861 165.189C133.234 165.98 131.941 165.513 131.371 164.354C130.8 163.195 131.223 161.895 132.85 161.104C134.478 160.313 135.77 160.78 136.341 161.939Z" fill="#070708"/>
<path d="M116.715 168.078C116.707 167.32 117.362 166.552 118.691 166.222C120.423 165.794 121.554 166.527 121.868 167.779C122.182 169.031 121.547 170.202 119.892 170.612C118.708 170.905 117.658 170.676 117.288 169.999L116.267 170.324C116.811 171.474 118.268 171.946 120.112 171.489C122.444 170.912 123.404 169.326 122.949 167.511C122.492 165.689 120.881 164.748 118.471 165.345C116.473 165.84 115.559 166.953 115.663 168.275L116.715 168.078Z" fill="#070708"/>
<path d="M113.108 169.765C112.919 167.905 111.416 166.741 108.927 166.99C106.439 167.24 105.199 168.679 105.388 170.539C105.577 172.4 107.08 173.564 109.569 173.314C112.057 173.065 113.297 171.626 113.108 169.765ZM112 169.876C112.131 171.16 111.28 172.234 109.478 172.415C107.675 172.595 106.626 171.712 106.496 170.428C106.366 169.144 107.216 168.071 109.018 167.89C110.821 167.709 111.87 168.592 112 169.876Z" fill="#070708"/>
<path d="M97.8162 171.03L100.836 171.152L100.77 172.757L96.0813 172.568L96.046 173.427L101.848 173.662L102.1 167.521L97.9672 167.354C96.6161 167.3 95.6471 167.849 95.5956 169.104C95.5452 170.332 96.4652 170.975 97.8162 171.03ZM98.0202 168.218L100.952 168.336L100.871 170.301L97.9394 170.183C97.1271 170.15 96.6823 169.78 96.7079 169.158C96.7338 168.526 97.2078 168.185 98.0202 168.218Z" fill="#070708"/>
<path d="M92.7927 166.926L86.907 165.908L86.7569 166.765L91.5455 167.592L91.227 169.409L87.579 168.778L87.4364 169.591L91.0845 170.222L90.7842 171.934L86.1697 171.137L86.0196 171.993L91.7311 172.98L92.7927 166.926Z" fill="#070708"/>
<path d="M77.8117 165.5C78.2042 164.85 79.1664 164.536 80.4724 164.946C82.1744 165.481 82.752 166.694 82.36 167.924C81.968 169.155 80.8099 169.822 79.1837 169.311C78.021 168.946 77.2466 168.205 77.2879 167.435L76.247 167.182C76.1043 168.445 77.0975 169.604 78.9091 170.173C81.2009 170.893 82.8536 170.041 83.4217 168.258C83.9923 166.467 83.1147 164.828 80.7471 164.084C78.7839 163.467 77.4188 163.94 76.8108 165.121L77.8117 165.5Z" fill="#070708"/>
<path d="M74.8379 162.091L69.4342 159.561L69.061 160.347L73.4576 162.406L72.666 164.073L69.3167 162.505L68.9624 163.252L72.3117 164.82L71.5655 166.392L67.3288 164.409L66.9557 165.195L72.1995 167.65L74.8379 162.091Z" fill="#070708"/>
<path d="M61.0032 155.468L58.1353 159.868L62.6826 162.792C64.3071 160.542 65.4223 159.251 66.3887 158.932L66.9228 159.275L68.1958 157.322L67.3353 156.769L66.5571 157.963L61.728 154.857L62.5062 153.663L61.6382 153.105L60.3652 155.058L61.0032 155.468ZM61.9379 156.069L65.4837 158.349C65.1039 158.545 64.6743 158.864 64.246 159.279C63.5562 159.934 62.8815 160.807 62.3466 161.499L59.5648 159.71L61.9379 156.069Z" fill="#070708"/>
<path d="M57.0691 155.31C58.308 153.902 58.1366 152.016 56.2535 150.381C54.3704 148.746 52.4657 148.83 51.2269 150.238C49.988 151.646 50.1594 153.533 52.0425 155.167C53.9256 156.802 55.8303 156.718 57.0691 155.31ZM56.2307 154.582C55.3757 155.554 54.0057 155.671 52.6416 154.486C51.2775 153.302 51.2103 151.938 52.0653 150.966C52.9203 149.994 54.2903 149.878 55.6544 151.062C57.0185 152.246 57.0857 153.61 56.2307 154.582Z" fill="#070708"/>
<path d="M45.6767 144.233C44.9902 143.626 44.1936 143.391 43.5563 143.934C42.825 144.557 42.9105 145.641 43.7907 146.661L46.5003 149.799L51.1965 145.798L48.4927 142.666C47.4457 141.453 46.4123 141.2 45.6206 141.875C44.9363 142.458 44.9921 143.278 45.6767 144.233ZM46.4329 148.399L44.4827 146.14C44.0513 145.641 43.9524 145.054 44.3885 144.683C44.8178 144.317 45.3988 144.504 45.8245 144.997L47.7747 147.256L46.4329 148.399ZM47.9043 143.306L49.8142 145.518L48.4121 146.713L46.4446 144.434C45.9153 143.821 45.7216 143.246 46.2381 142.806C46.7547 142.366 47.306 142.613 47.9043 143.306Z" fill="#070708"/>
<path d="M41.8486 133.357L41.231 132.395L37.6633 138.268L38.5707 139.682L45.431 138.938L44.8323 138.005L43.1834 138.196L40.9788 134.762L41.8486 133.357ZM42.2447 138.302L38.5265 138.731L40.4868 135.563L42.2447 138.302Z" fill="#070708"/>
<path d="M31.9393 127.32L34.2915 126.265L36.1528 130.362L33.8006 131.416L34.2587 132.425L39.8974 129.896L39.4394 128.888L36.9906 129.986L35.1292 125.889L37.5781 124.791L37.12 123.783L31.4813 126.312L31.9393 127.32Z" fill="#070708"/>
<path d="M28.6098 117.471L35.0027 119.922L29.7421 121.414L30.0403 122.452L35.9893 120.765L35.519 119.127L29.1285 116.685L34.3892 115.194L34.0885 114.147L28.1395 115.834L28.6098 117.471Z" fill="#070708"/>
<path d="M26.3028 108.288C26.1419 107.061 25.6036 106.626 24.8629 106.686L24.9576 107.409C25.2963 107.409 25.6064 107.599 25.7068 108.365C25.8061 109.123 25.5565 109.394 25.2291 109.481L25.3238 110.203C26.0554 110.073 26.4636 109.516 26.3028 108.288ZM26.5764 106.5L32.5339 109.863L27.1092 110.565L27.2495 111.636L33.3841 110.842L33.1628 109.153L27.2064 105.799L32.6311 105.096L32.4896 104.017L26.355 104.811L26.5764 106.5Z" fill="#070708"/>
<path d="M30.484 96.6673C30.4839 97.4746 29.8251 98.129 29.0125 98.1291C28.1998 98.1292 27.5411 97.4748 27.5412 96.6676C27.5412 95.8603 28.2001 95.2059 29.0127 95.2058C29.8253 95.2057 30.4841 95.8601 30.484 96.6673Z" fill="#070708"/>
<path d="M176.603 96.6552C176.603 97.4624 175.944 98.1169 175.132 98.117C174.319 98.117 173.66 97.4627 173.66 96.6554C173.66 95.8482 174.319 95.1937 175.132 95.1937C175.944 95.1936 176.603 95.848 176.603 96.6552Z" fill="#070708"/>
</g>
<path fill-rule="evenodd" clip-rule="evenodd" d="M92.5603 11.0312L185.173 78.4731C177.618 79.1839 169.843 78.9042 162.008 77.5227C126.509 71.2633 99.9126 44.1735 92.5603 11.0312Z" fill="#FFAF40"/>
</svg>
