<svg width="1114" height="882" viewBox="0 0 1114 882" fill="none" xmlns="http://www.w3.org/2000/svg">
<g clip-path="url(#clip0)">
<path d="M0 10C0 4.47716 4.47715 0 10 0H1104C1109.52 0 1114 4.47715 1114 10V872C1114 877.523 1109.52 882 1104 882H9.99998C4.47713 882 0 877.523 0 872V10Z" fill="#122243"/>
<path opacity="0.3" fill-rule="evenodd" clip-rule="evenodd" d="M-68.919 597.418C-87.5536 520.979 -38.8003 444.694 5.01666 379.359C50.2652 311.89 102.397 231.658 183.002 221.783C262.887 211.996 318.941 296.522 391.164 332.053C449.174 360.592 514.964 366.959 563.929 409.186C623.851 460.863 710.938 519.193 698.868 597.418C686.357 678.5 577.334 698.507 511.7 747.684C468.993 779.682 431.626 815 382.069 834.778C329.177 855.887 272.747 881.014 218.145 864.837C163.031 848.509 137.398 789.015 95.3298 749.826C39.309 697.639 -50.7808 671.822 -68.919 597.418Z" fill="#163F96"/>
<path opacity="0.3" fill-rule="evenodd" clip-rule="evenodd" d="M1074.29 -64.9741C1128.46 -59.9026 1183.9 -67.0229 1231.72 -41.0576C1284.05 -12.6382 1328.58 30.5815 1351.48 85.5546C1375.56 143.392 1376 207.921 1360.71 268.68C1344.59 332.781 1317.58 398.043 1263.35 435.832C1209.57 473.304 1138.39 481.976 1074.29 468.264C1016.81 455.968 988.17 393.094 936.1 365.823C869.228 330.798 760.44 356.5 729.464 287.659C699.479 221.021 781.857 156.934 812.192 90.4549C838.073 33.7371 840.268 -40.8853 893.891 -72.6849C946.961 -104.155 1012.86 -70.7252 1074.29 -64.9741Z" fill="#163F96"/>
<path d="M975.205 713.716L974.921 712.952L974.369 713.552L903.101 791.017L946.861 695.283L947.199 694.541L946.385 694.575L841.215 698.957L939.852 662.205L940.616 661.921L940.016 661.369L862.551 590.1L958.286 633.86L959.027 634.199L958.993 633.385L954.612 528.215L991.363 626.852L991.647 627.616L992.199 627.016L1063.47 549.551L1019.71 645.285L1019.37 646.027L1020.18 645.993L1125.35 641.611L1026.72 678.363L1025.95 678.647L1026.55 679.199L1104.02 750.468L1008.28 706.708L1007.54 706.369L1007.58 707.183L1011.96 812.353L975.205 713.716Z" stroke="#FFD940"/>
<path d="M882.308 212.662L882.016 213.423L882.827 213.338L934.958 207.882L887.083 229.222L886.338 229.554L886.972 230.067L927.692 263.071L878.75 244.308L877.989 244.016L878.073 244.827L883.53 296.958L862.19 249.083L861.858 248.338L861.345 248.972L828.341 289.692L847.104 240.75L847.396 239.989L846.585 240.073L794.454 245.53L842.329 224.19L843.073 223.858L842.44 223.345L801.719 190.341L850.662 209.104L851.423 209.396L851.338 208.585L845.882 156.454L867.222 204.329L867.554 205.073L868.067 204.44L901.071 163.72L882.308 212.662Z" stroke="#FFD940"/>
<path d="M124.391 347.554L123.62 347.818L124.204 348.386L148.593 372.072L118.066 357.108L117.334 356.749L117.346 357.564L117.842 391.559L106.837 359.391L106.574 358.62L106.006 359.204L82.3193 383.593L97.2836 353.066L97.6424 352.334L96.8273 352.346L62.833 352.842L95.0006 341.838L95.7718 341.574L95.1871 341.006L70.7982 317.319L101.326 332.284L102.058 332.642L102.046 331.827L101.549 297.833L112.554 330.001L112.818 330.772L113.386 330.187L137.072 305.798L122.108 336.326L121.749 337.058L122.564 337.046L156.558 336.549L124.391 347.554Z" stroke="#FFD940"/>
</g>
<defs>
<clipPath id="clip0">
<path d="M0 10C0 4.47716 4.47715 0 10 0H1104C1109.52 0 1114 4.47715 1114 10V872C1114 877.523 1109.52 882 1104 882H9.99998C4.47713 882 0 877.523 0 872V10Z" fill="white"/>
</clipPath>
</defs>
</svg>
